<svg width="170" height="145" viewBox="0 0 170 145" fill="none" xmlns="http://www.w3.org/2000/svg">
<rect x="0.5" y="0.5" width="169" height="144" rx="3.5" stroke="black" stroke-opacity="0.3"/>
<path d="M63.688 107.112C63.688 108.04 63.368 108.813 62.728 109.432C62.0987 110.04 61.1333 110.344 59.832 110.344H57.688V115H56.232V103.848H59.832C61.0907 103.848 62.0453 104.152 62.696 104.76C63.3573 105.368 63.688 106.152 63.688 107.112ZM59.832 109.144C60.6427 109.144 61.24 108.968 61.624 108.616C62.008 108.264 62.2 107.763 62.2 107.112C62.2 105.736 61.4107 105.048 59.832 105.048H57.688V109.144H59.832ZM69.8496 106.072C70.511 106.072 71.1083 106.216 71.6416 106.504C72.175 106.781 72.591 107.203 72.8896 107.768C73.199 108.333 73.3536 109.021 73.3536 109.832V115H71.9136V110.04C71.9136 109.165 71.695 108.499 71.2576 108.04C70.8203 107.571 70.223 107.336 69.4656 107.336C68.6976 107.336 68.0843 107.576 67.6256 108.056C67.1776 108.536 66.9536 109.235 66.9536 110.152V115H65.4976V103.16H66.9536V107.48C67.2416 107.032 67.6363 106.685 68.1376 106.44C68.6496 106.195 69.2203 106.072 69.8496 106.072ZM79.556 115.144C78.7347 115.144 77.988 114.957 77.316 114.584C76.6547 114.211 76.132 113.683 75.748 113C75.3747 112.307 75.188 111.507 75.188 110.6C75.188 109.704 75.38 108.915 75.764 108.232C76.1587 107.539 76.692 107.011 77.364 106.648C78.036 106.275 78.788 106.088 79.62 106.088C80.452 106.088 81.204 106.275 81.876 106.648C82.548 107.011 83.076 107.533 83.46 108.216C83.8547 108.899 84.052 109.693 84.052 110.6C84.052 111.507 83.8493 112.307 83.444 113C83.0493 113.683 82.5107 114.211 81.828 114.584C81.1453 114.957 80.388 115.144 79.556 115.144ZM79.556 113.864C80.0787 113.864 80.5693 113.741 81.028 113.496C81.4867 113.251 81.8547 112.883 82.132 112.392C82.42 111.901 82.564 111.304 82.564 110.6C82.564 109.896 82.4253 109.299 82.148 108.808C81.8707 108.317 81.508 107.955 81.06 107.72C80.612 107.475 80.1267 107.352 79.604 107.352C79.0707 107.352 78.58 107.475 78.132 107.72C77.6947 107.955 77.3427 108.317 77.076 108.808C76.8093 109.299 76.676 109.896 76.676 110.6C76.676 111.315 76.804 111.917 77.06 112.408C77.3267 112.899 77.6787 113.267 78.116 113.512C78.5533 113.747 79.0333 113.864 79.556 113.864ZM90.2384 106.072C91.305 106.072 92.169 106.397 92.8304 107.048C93.4917 107.688 93.8224 108.616 93.8224 109.832V115H92.3824V110.04C92.3824 109.165 92.1637 108.499 91.7264 108.04C91.289 107.571 90.6917 107.336 89.9344 107.336C89.1664 107.336 88.553 107.576 88.0944 108.056C87.6464 108.536 87.4224 109.235 87.4224 110.152V115H85.9664V106.232H87.4224V107.48C87.7104 107.032 88.0997 106.685 88.5904 106.44C89.0917 106.195 89.641 106.072 90.2384 106.072ZM104.201 110.28C104.201 110.557 104.185 110.851 104.153 111.16H97.1448C97.1981 112.024 97.4914 112.701 98.0248 113.192C98.5688 113.672 99.2248 113.912 99.9928 113.912C100.622 113.912 101.145 113.768 101.561 113.48C101.987 113.181 102.286 112.787 102.457 112.296H104.025C103.79 113.139 103.321 113.827 102.617 114.36C101.913 114.883 101.038 115.144 99.9928 115.144C99.1608 115.144 98.4141 114.957 97.7528 114.584C97.1021 114.211 96.5901 113.683 96.2168 113C95.8434 112.307 95.6568 111.507 95.6568 110.6C95.6568 109.693 95.8381 108.899 96.2008 108.216C96.5634 107.533 97.0701 107.011 97.7208 106.648C98.3821 106.275 99.1394 106.088 99.9928 106.088C100.825 106.088 101.561 106.269 102.201 106.632C102.841 106.995 103.331 107.496 103.673 108.136C104.025 108.765 104.201 109.48 104.201 110.28ZM102.697 109.976C102.697 109.421 102.574 108.947 102.329 108.552C102.083 108.147 101.747 107.843 101.321 107.64C100.905 107.427 100.441 107.32 99.9288 107.32C99.1928 107.32 98.5634 107.555 98.0408 108.024C97.5288 108.493 97.2354 109.144 97.1608 109.976H102.697ZM109.227 115.144C108.555 115.144 107.952 115.032 107.419 114.808C106.885 114.573 106.464 114.253 106.155 113.848C105.845 113.432 105.675 112.957 105.643 112.424H107.147C107.189 112.861 107.392 113.219 107.755 113.496C108.128 113.773 108.613 113.912 109.211 113.912C109.765 113.912 110.203 113.789 110.523 113.544C110.843 113.299 111.003 112.989 111.003 112.616C111.003 112.232 110.832 111.949 110.491 111.768C110.149 111.576 109.621 111.389 108.907 111.208C108.256 111.037 107.723 110.867 107.307 110.696C106.901 110.515 106.549 110.253 106.251 109.912C105.963 109.56 105.819 109.101 105.819 108.536C105.819 108.088 105.952 107.677 106.219 107.304C106.485 106.931 106.864 106.637 107.355 106.424C107.845 106.2 108.405 106.088 109.035 106.088C110.005 106.088 110.789 106.333 111.387 106.824C111.984 107.315 112.304 107.987 112.347 108.84H110.891C110.859 108.381 110.672 108.013 110.331 107.736C110 107.459 109.552 107.32 108.987 107.32C108.464 107.32 108.048 107.432 107.739 107.656C107.429 107.88 107.275 108.173 107.275 108.536C107.275 108.824 107.365 109.064 107.547 109.256C107.739 109.437 107.973 109.587 108.251 109.704C108.539 109.811 108.933 109.933 109.435 110.072C110.064 110.243 110.576 110.413 110.971 110.584C111.365 110.744 111.701 110.989 111.979 111.32C112.267 111.651 112.416 112.083 112.427 112.616C112.427 113.096 112.293 113.528 112.027 113.912C111.76 114.296 111.381 114.6 110.891 114.824C110.411 115.037 109.856 115.144 109.227 115.144Z" fill="black"/>
<g clip-path="url(#clip0_85_1334)">
<path d="M95.9375 31.125H74.0625C72.5523 31.125 71.3281 32.3492 71.3281 33.8594V72.1406C71.3281 73.6508 72.5523 74.875 74.0625 74.875H95.9375C97.4477 74.875 98.6719 73.6508 98.6719 72.1406V33.8594C98.6719 32.3492 97.4477 31.125 95.9375 31.125Z" stroke="black" stroke-width="2" stroke-linecap="round" stroke-linejoin="round"/>
<path d="M82.6667 32H88.1354" stroke="black" stroke-width="3" stroke-linecap="round" stroke-linejoin="round"/>
<path d="M85 69.0052V69.0305" stroke="black" stroke-width="2.5" stroke-linecap="round" stroke-linejoin="round"/>
<line x1="72.1667" y1="64.8334" x2="97.8333" y2="64.8334" stroke="black" stroke-width="2"/>
</g>
<defs>
<clipPath id="clip0_85_1334">
<rect width="56" height="56" fill="white" transform="translate(57 25)"/>
</clipPath>
</defs>
</svg>
