<svg width="256" height="161" viewBox="0 0 256 161" fill="none" xmlns="http://www.w3.org/2000/svg">
<path opacity="0.3" d="M168 40C168 62.0914 150.091 80 128 80C105.909 80 88 62.0914 88 40C88 17.9086 105.909 0 128 0C150.091 0 168 17.9086 168 40ZM98.9071 40C98.9071 56.0675 111.932 69.0929 128 69.0929C144.068 69.0929 157.093 56.0675 157.093 40C157.093 23.9325 144.068 10.9071 128 10.9071C111.932 10.9071 98.9071 23.9325 98.9071 40Z" fill="#2F2E30"/>
<circle cx="128" cy="40" r="29" fill="black"/>
<path d="M116.099 50.5992L116.099 50.5991C115.226 49.9483 114.425 48.9206 113.843 47.759C113.26 46.5973 112.917 45.3451 112.917 44.2666V31.8666C112.917 29.5074 114.671 26.9618 116.891 26.1351L116.892 26.1348L125.208 23.0183C125.208 23.0182 125.208 23.0182 125.209 23.0182C125.962 22.7366 126.962 22.5874 127.983 22.5874C129.005 22.5874 130.005 22.7366 130.758 23.0182C130.758 23.0182 130.758 23.0182 130.758 23.0183L139.075 26.1348L139.075 26.1351C141.295 26.9618 143.05 29.5074 143.05 31.8666V44.2499C143.05 45.3371 142.707 46.5892 142.124 47.7483C141.542 48.9073 140.741 49.9313 139.868 50.5824L139.868 50.5826L132.701 55.9326L132.701 55.9325L132.695 55.9373C131.412 56.9264 129.724 57.4332 128 57.4332C126.277 57.4332 124.585 56.927 123.265 55.9486C123.265 55.9484 123.265 55.9483 123.264 55.9482L116.099 50.5992ZM125.742 24.4315L125.741 24.4317L117.425 27.5484L117.424 27.5486C116.596 27.8602 115.855 28.5225 115.324 29.2906C114.793 30.059 114.433 30.9898 114.433 31.8832V44.2666C114.433 45.161 114.744 46.1892 115.201 47.101C115.658 48.0126 116.293 48.8722 117.001 49.4005L117.001 49.4006L124.167 54.7503C125.229 55.5445 126.628 55.9249 128.002 55.9249C129.376 55.9249 130.778 55.5445 131.848 54.7516L131.849 54.7506L139.016 49.4006L139.017 49.3999C139.731 48.8638 140.367 48.005 140.822 47.0943C141.278 46.1837 141.583 45.16 141.583 44.2666V31.8666C141.583 30.9804 141.223 30.0538 140.693 29.2864C140.162 28.5189 139.422 27.854 138.598 27.5338L138.598 27.5338L138.592 27.5317L130.275 24.415L130.275 24.4149L130.266 24.4117C129.628 24.1865 128.8 24.0831 128.001 24.0853C127.202 24.0875 126.375 24.1951 125.742 24.4315Z" fill="#FAFAFA" stroke="#FAFAFA"/>
<path d="M125.413 41.0536L125.767 41.4071L126.12 41.0536L132.404 34.7703C132.692 34.4822 133.175 34.4822 133.463 34.7703C133.751 35.0583 133.751 35.5417 133.463 35.8298L126.296 42.9965C126.145 43.1478 125.958 43.2167 125.767 43.2167C125.575 43.2167 125.388 43.1478 125.237 42.9965L122.554 40.3131C122.266 40.0251 122.266 39.5417 122.554 39.2536C122.842 38.9655 123.325 38.9655 123.613 39.2536L125.413 41.0536Z" fill="#FAFAFA" stroke="#FAFAFA"/>
<path d="M16.6 111.04V125H13.8V115.92L10.06 125H7.94L4.18 115.92V125H1.38V111.04H4.56L9 121.42L13.44 111.04H16.6ZM25.8483 125.14C24.5416 125.14 23.3416 124.833 22.2483 124.22C21.1549 123.607 20.2883 122.76 19.6483 121.68C19.0083 120.587 18.6883 119.353 18.6883 117.98C18.6883 116.62 19.0083 115.4 19.6483 114.32C20.2883 113.227 21.1549 112.373 22.2483 111.76C23.3416 111.147 24.5416 110.84 25.8483 110.84C27.1683 110.84 28.3683 111.147 29.4483 111.76C30.5416 112.373 31.4016 113.227 32.0283 114.32C32.6683 115.4 32.9883 116.62 32.9883 117.98C32.9883 119.353 32.6683 120.587 32.0283 121.68C31.4016 122.76 30.5416 123.607 29.4483 124.22C28.3549 124.833 27.1549 125.14 25.8483 125.14ZM25.8483 122.64C26.6883 122.64 27.4283 122.453 28.0683 122.08C28.7083 121.693 29.2083 121.147 29.5683 120.44C29.9283 119.733 30.1083 118.913 30.1083 117.98C30.1083 117.047 29.9283 116.233 29.5683 115.54C29.2083 114.833 28.7083 114.293 28.0683 113.92C27.4283 113.547 26.6883 113.36 25.8483 113.36C25.0083 113.36 24.2616 113.547 23.6083 113.92C22.9683 114.293 22.4683 114.833 22.1083 115.54C21.7483 116.233 21.5683 117.047 21.5683 117.98C21.5683 118.913 21.7483 119.733 22.1083 120.44C22.4683 121.147 22.9683 121.693 23.6083 122.08C24.2616 122.453 25.0083 122.64 25.8483 122.64ZM47.0114 125H44.2114L37.8714 115.42V125H35.0714V111.02H37.8714L44.2114 120.62V111.02H47.0114V125ZM52.5784 113.3V116.8H57.2784V119.02H52.5784V122.72H57.8784V125H49.7784V111.02H57.8784V113.3H52.5784ZM71.523 111.04L66.803 120.14V125H64.003V120.14L59.263 111.04H62.423L65.423 117.42L68.403 111.04H71.523ZM85.8234 117.84C86.6101 117.987 87.2568 118.38 87.7634 119.02C88.2701 119.66 88.5234 120.393 88.5234 121.22C88.5234 121.967 88.3368 122.627 87.9634 123.2C87.6034 123.76 87.0768 124.2 86.3834 124.52C85.6901 124.84 84.8701 125 83.9234 125H77.9034V111.04H83.6634C84.6101 111.04 85.4234 111.193 86.1034 111.5C86.7968 111.807 87.3168 112.233 87.6634 112.78C88.0234 113.327 88.2034 113.947 88.2034 114.64C88.2034 115.453 87.9834 116.133 87.5434 116.68C87.1168 117.227 86.5434 117.613 85.8234 117.84ZM80.7034 116.8H83.2634C83.9301 116.8 84.4434 116.653 84.8034 116.36C85.1634 116.053 85.3434 115.62 85.3434 115.06C85.3434 114.5 85.1634 114.067 84.8034 113.76C84.4434 113.453 83.9301 113.3 83.2634 113.3H80.7034V116.8ZM83.5234 122.72C84.2034 122.72 84.7301 122.56 85.1034 122.24C85.4901 121.92 85.6834 121.467 85.6834 120.88C85.6834 120.28 85.4834 119.813 85.0834 119.48C84.6834 119.133 84.1434 118.96 83.4634 118.96H80.7034V122.72H83.5234ZM99.315 122.34H93.755L92.835 125H89.895L94.915 111.02H98.175L103.195 125H100.235L99.315 122.34ZM98.555 120.1L96.535 114.26L94.515 120.1H98.555ZM104.391 118C104.391 116.627 104.698 115.4 105.311 114.32C105.938 113.227 106.785 112.38 107.851 111.78C108.931 111.167 110.138 110.86 111.471 110.86C113.031 110.86 114.398 111.26 115.571 112.06C116.745 112.86 117.565 113.967 118.031 115.38H114.811C114.491 114.713 114.038 114.213 113.451 113.88C112.878 113.547 112.211 113.38 111.451 113.38C110.638 113.38 109.911 113.573 109.271 113.96C108.645 114.333 108.151 114.867 107.791 115.56C107.445 116.253 107.271 117.067 107.271 118C107.271 118.92 107.445 119.733 107.791 120.44C108.151 121.133 108.645 121.673 109.271 122.06C109.911 122.433 110.638 122.62 111.451 122.62C112.211 122.62 112.878 122.453 113.451 122.12C114.038 121.773 114.491 121.267 114.811 120.6H118.031C117.565 122.027 116.745 123.14 115.571 123.94C114.411 124.727 113.045 125.12 111.471 125.12C110.138 125.12 108.931 124.82 107.851 124.22C106.785 123.607 105.938 122.76 105.311 121.68C104.698 120.6 104.391 119.373 104.391 118ZM128.303 125L123.223 118.78V125H120.423V111.04H123.223V117.3L128.303 111.04H131.683L125.923 117.96L131.843 125H128.303ZM148.17 115.24C147.85 114.653 147.41 114.207 146.85 113.9C146.29 113.593 145.637 113.44 144.89 113.44C144.064 113.44 143.33 113.627 142.69 114C142.05 114.373 141.55 114.907 141.19 115.6C140.83 116.293 140.65 117.093 140.65 118C140.65 118.933 140.83 119.747 141.19 120.44C141.564 121.133 142.077 121.667 142.73 122.04C143.384 122.413 144.144 122.6 145.01 122.6C146.077 122.6 146.95 122.32 147.63 121.76C148.31 121.187 148.757 120.393 148.97 119.38H144.17V117.24H151.73V119.68C151.544 120.653 151.144 121.553 150.53 122.38C149.917 123.207 149.124 123.873 148.15 124.38C147.19 124.873 146.11 125.12 144.91 125.12C143.564 125.12 142.344 124.82 141.25 124.22C140.17 123.607 139.317 122.76 138.69 121.68C138.077 120.6 137.77 119.373 137.77 118C137.77 116.627 138.077 115.4 138.69 114.32C139.317 113.227 140.17 112.38 141.25 111.78C142.344 111.167 143.557 110.86 144.89 110.86C146.464 110.86 147.83 111.247 148.99 112.02C150.15 112.78 150.95 113.853 151.39 115.24H148.17ZM156.562 111.04V119.68C156.562 120.627 156.809 121.353 157.302 121.86C157.795 122.353 158.489 122.6 159.382 122.6C160.289 122.6 160.989 122.353 161.482 121.86C161.975 121.353 162.222 120.627 162.222 119.68V111.04H165.042V119.66C165.042 120.847 164.782 121.853 164.262 122.68C163.755 123.493 163.069 124.107 162.202 124.52C161.349 124.933 160.395 125.14 159.342 125.14C158.302 125.14 157.355 124.933 156.502 124.52C155.662 124.107 154.995 123.493 154.502 122.68C154.009 121.853 153.762 120.847 153.762 119.66V111.04H156.562ZM176.307 122.34H170.747L169.827 125H166.887L171.907 111.02H175.167L180.187 125H177.227L176.307 122.34ZM175.547 120.1L173.527 114.26L171.507 120.1H175.547ZM189.264 125L186.184 119.56H184.864V125H182.064V111.04H187.304C188.384 111.04 189.304 111.233 190.064 111.62C190.824 111.993 191.39 112.507 191.764 113.16C192.15 113.8 192.344 114.52 192.344 115.32C192.344 116.24 192.077 117.073 191.544 117.82C191.01 118.553 190.217 119.06 189.164 119.34L192.504 125H189.264ZM184.864 117.46H187.204C187.964 117.46 188.53 117.28 188.904 116.92C189.277 116.547 189.464 116.033 189.464 115.38C189.464 114.74 189.277 114.247 188.904 113.9C188.53 113.54 187.964 113.36 187.204 113.36H184.864V117.46ZM203.436 122.34H197.876L196.956 125H194.016L199.036 111.02H202.296L207.316 125H204.356L203.436 122.34ZM202.676 120.1L200.656 114.26L198.636 120.1H202.676ZM221.133 125H218.333L211.993 115.42V125H209.193V111.02H211.993L218.333 120.62V111.02H221.133V125ZM233.4 111.04V113.3H229.68V125H226.88V113.3H223.16V111.04H233.4ZM238.243 113.3V116.8H242.943V119.02H238.243V122.72H243.543V125H235.443V111.02H243.543V113.3H238.243ZM248.887 113.3V116.8H253.587V119.02H248.887V122.72H254.187V125H246.087V111.02H254.187V113.3H248.887Z" fill="black"/>
<path d="M31.342 145.242L28.514 155H27.086L24.818 147.146L22.466 155L21.052 155.014L18.322 145.242H19.68L21.808 153.516L24.16 145.242H25.588L27.828 153.488L29.97 145.242H31.342ZM39.7362 150.87C39.7362 151.113 39.7222 151.369 39.6942 151.64H33.5622C33.6089 152.396 33.8655 152.989 34.3322 153.418C34.8082 153.838 35.3822 154.048 36.0542 154.048C36.6049 154.048 37.0622 153.922 37.4262 153.67C37.7995 153.409 38.0609 153.063 38.2102 152.634H39.5822C39.3769 153.371 38.9662 153.973 38.3502 154.44C37.7342 154.897 36.9689 155.126 36.0542 155.126C35.3262 155.126 34.6729 154.963 34.0942 154.636C33.5249 154.309 33.0769 153.847 32.7502 153.25C32.4235 152.643 32.2602 151.943 32.2602 151.15C32.2602 150.357 32.4189 149.661 32.7362 149.064C33.0535 148.467 33.4969 148.009 34.0662 147.692C34.6449 147.365 35.3075 147.202 36.0542 147.202C36.7822 147.202 37.4262 147.361 37.9862 147.678C38.5462 147.995 38.9755 148.434 39.2742 148.994C39.5822 149.545 39.7362 150.17 39.7362 150.87ZM38.4202 150.604C38.4202 150.119 38.3129 149.703 38.0982 149.358C37.8835 149.003 37.5895 148.737 37.2162 148.56C36.8522 148.373 36.4462 148.28 35.9982 148.28C35.3542 148.28 34.8035 148.485 34.3462 148.896C33.8982 149.307 33.6415 149.876 33.5762 150.604H38.4202ZM46.4243 148.574C46.6483 148.135 46.9656 147.795 47.3763 147.552C47.7963 147.309 48.3049 147.188 48.9023 147.188V148.504H48.5663C47.1383 148.504 46.4243 149.279 46.4243 150.828V155H45.1503V147.328H46.4243V148.574ZM57.3729 150.87C57.3729 151.113 57.3589 151.369 57.3309 151.64H51.1989C51.2456 152.396 51.5023 152.989 51.9689 153.418C52.4449 153.838 53.0189 154.048 53.6909 154.048C54.2416 154.048 54.6989 153.922 55.0629 153.67C55.4363 153.409 55.6976 153.063 55.8469 152.634H57.2189C57.0136 153.371 56.6029 153.973 55.9869 154.44C55.3709 154.897 54.6056 155.126 53.6909 155.126C52.9629 155.126 52.3096 154.963 51.7309 154.636C51.1616 154.309 50.7136 153.847 50.3869 153.25C50.0603 152.643 49.8969 151.943 49.8969 151.15C49.8969 150.357 50.0556 149.661 50.3729 149.064C50.6903 148.467 51.1336 148.009 51.7029 147.692C52.2816 147.365 52.9443 147.202 53.6909 147.202C54.4189 147.202 55.0629 147.361 55.6229 147.678C56.1829 147.995 56.6123 148.434 56.9109 148.994C57.2189 149.545 57.3729 150.17 57.3729 150.87ZM56.0569 150.604C56.0569 150.119 55.9496 149.703 55.7349 149.358C55.5203 149.003 55.2263 148.737 54.8529 148.56C54.4889 148.373 54.0829 148.28 53.6349 148.28C52.9909 148.28 52.4403 148.485 51.9829 148.896C51.5349 149.307 51.2783 149.876 51.2129 150.604H56.0569ZM65.8586 147.328V155H64.5846V153.866C64.3419 154.258 64.0012 154.566 63.5626 154.79C63.1332 155.005 62.6572 155.112 62.1346 155.112C61.5372 155.112 61.0006 154.991 60.5246 154.748C60.0486 154.496 59.6706 154.123 59.3906 153.628C59.1199 153.133 58.9846 152.531 58.9846 151.822V147.328H60.2446V151.654C60.2446 152.41 60.4359 152.993 60.8186 153.404C61.2012 153.805 61.7239 154.006 62.3866 154.006C63.0679 154.006 63.6046 153.796 63.9966 153.376C64.3886 152.956 64.5846 152.345 64.5846 151.542V147.328H65.8586ZM69.2836 148.574C69.5076 148.135 69.825 147.795 70.2356 147.552C70.6556 147.309 71.1643 147.188 71.7616 147.188V148.504H71.4256C69.9976 148.504 69.2836 149.279 69.2836 150.828V155H68.0096V147.328H69.2836V148.574ZM76.9703 147.188C77.9036 147.188 78.6596 147.473 79.2383 148.042C79.817 148.602 80.1063 149.414 80.1063 150.478V155H78.8463V150.66C78.8463 149.895 78.655 149.311 78.2723 148.91C77.8896 148.499 77.367 148.294 76.7043 148.294C76.0323 148.294 75.4956 148.504 75.0943 148.924C74.7023 149.344 74.5063 149.955 74.5063 150.758V155H73.2323V147.328H74.5063V148.42C74.7583 148.028 75.099 147.725 75.5283 147.51C75.967 147.295 76.4476 147.188 76.9703 147.188ZM95.1458 147.188C95.7431 147.188 96.2751 147.314 96.7418 147.566C97.2085 147.809 97.5771 148.177 97.8478 148.672C98.1185 149.167 98.2538 149.769 98.2538 150.478V155H96.9938V150.66C96.9938 149.895 96.8025 149.311 96.4198 148.91C96.0465 148.499 95.5378 148.294 94.8938 148.294C94.2311 148.294 93.7038 148.509 93.3118 148.938C92.9198 149.358 92.7238 149.969 92.7238 150.772V155H91.4638V150.66C91.4638 149.895 91.2725 149.311 90.8898 148.91C90.5165 148.499 90.0078 148.294 89.3638 148.294C88.7011 148.294 88.1738 148.509 87.7818 148.938C87.3898 149.358 87.1938 149.969 87.1938 150.772V155H85.9198V147.328H87.1938V148.434C87.4458 148.033 87.7818 147.725 88.2018 147.51C88.6311 147.295 89.1025 147.188 89.6158 147.188C90.2598 147.188 90.8291 147.333 91.3238 147.622C91.8185 147.911 92.1871 148.336 92.4298 148.896C92.6445 148.355 92.9991 147.935 93.4938 147.636C93.9885 147.337 94.5391 147.188 95.1458 147.188ZM103.69 155.126C102.971 155.126 102.318 154.963 101.73 154.636C101.151 154.309 100.694 153.847 100.358 153.25C100.031 152.643 99.8676 151.943 99.8676 151.15C99.8676 150.366 100.036 149.675 100.372 149.078C100.717 148.471 101.184 148.009 101.772 147.692C102.36 147.365 103.018 147.202 103.746 147.202C104.474 147.202 105.132 147.365 105.72 147.692C106.308 148.009 106.77 148.467 107.106 149.064C107.451 149.661 107.624 150.357 107.624 151.15C107.624 151.943 107.446 152.643 107.092 153.25C106.746 153.847 106.275 154.309 105.678 154.636C105.08 154.963 104.418 155.126 103.69 155.126ZM103.69 154.006C104.147 154.006 104.576 153.899 104.978 153.684C105.379 153.469 105.701 153.147 105.944 152.718C106.196 152.289 106.322 151.766 106.322 151.15C106.322 150.534 106.2 150.011 105.958 149.582C105.715 149.153 105.398 148.835 105.006 148.63C104.614 148.415 104.189 148.308 103.732 148.308C103.265 148.308 102.836 148.415 102.444 148.63C102.061 148.835 101.753 149.153 101.52 149.582C101.286 150.011 101.17 150.534 101.17 151.15C101.17 151.775 101.282 152.303 101.506 152.732C101.739 153.161 102.047 153.483 102.43 153.698C102.812 153.903 103.232 154.006 103.69 154.006ZM113.037 147.188C113.97 147.188 114.726 147.473 115.305 148.042C115.883 148.602 116.173 149.414 116.173 150.478V155H114.913V150.66C114.913 149.895 114.721 149.311 114.339 148.91C113.956 148.499 113.433 148.294 112.771 148.294C112.099 148.294 111.562 148.504 111.161 148.924C110.769 149.344 110.573 149.955 110.573 150.758V155H109.299V147.328H110.573V148.42C110.825 148.028 111.165 147.725 111.595 147.51C112.033 147.295 112.514 147.188 113.037 147.188ZM125.254 150.87C125.254 151.113 125.24 151.369 125.212 151.64H119.08C119.126 152.396 119.383 152.989 119.85 153.418C120.326 153.838 120.9 154.048 121.572 154.048C122.122 154.048 122.58 153.922 122.944 153.67C123.317 153.409 123.578 153.063 123.728 152.634H125.1C124.894 153.371 124.484 153.973 123.868 154.44C123.252 154.897 122.486 155.126 121.572 155.126C120.844 155.126 120.19 154.963 119.612 154.636C119.042 154.309 118.594 153.847 118.268 153.25C117.941 152.643 117.778 151.943 117.778 151.15C117.778 150.357 117.936 149.661 118.254 149.064C118.571 148.467 119.014 148.009 119.584 147.692C120.162 147.365 120.825 147.202 121.572 147.202C122.3 147.202 122.944 147.361 123.504 147.678C124.064 147.995 124.493 148.434 124.792 148.994C125.1 149.545 125.254 150.17 125.254 150.87ZM123.938 150.604C123.938 150.119 123.83 149.703 123.616 149.358C123.401 149.003 123.107 148.737 122.734 148.56C122.37 148.373 121.964 148.28 121.516 148.28C120.872 148.28 120.321 148.485 119.864 148.896C119.416 149.307 119.159 149.876 119.094 150.604H123.938ZM133.543 147.328L128.923 158.612H127.607L129.119 154.916L126.025 147.328H127.439L129.847 153.544L132.227 147.328H133.543ZM148.777 147.328L146.383 155H145.067L143.219 148.91L141.371 155H140.055L137.647 147.328H138.949L140.713 153.768L142.617 147.328H143.919L145.781 153.782L147.517 147.328H148.777ZM150.699 146.082C150.456 146.082 150.251 145.998 150.083 145.83C149.915 145.662 149.831 145.457 149.831 145.214C149.831 144.971 149.915 144.766 150.083 144.598C150.251 144.43 150.456 144.346 150.699 144.346C150.932 144.346 151.128 144.43 151.287 144.598C151.455 144.766 151.539 144.971 151.539 145.214C151.539 145.457 151.455 145.662 151.287 145.83C151.128 145.998 150.932 146.082 150.699 146.082ZM151.315 147.328V155H150.041V147.328H151.315ZM155.04 148.378V152.9C155.04 153.273 155.12 153.539 155.278 153.698C155.437 153.847 155.712 153.922 156.104 153.922H157.042V155H155.894C155.185 155 154.653 154.837 154.298 154.51C153.944 154.183 153.766 153.647 153.766 152.9V148.378H152.772V147.328H153.766V145.396H155.04V147.328H157.042V148.378H155.04ZM162.394 147.188C162.972 147.188 163.495 147.314 163.962 147.566C164.428 147.809 164.792 148.177 165.054 148.672C165.324 149.167 165.46 149.769 165.46 150.478V155H164.2V150.66C164.2 149.895 164.008 149.311 163.626 148.91C163.243 148.499 162.72 148.294 162.058 148.294C161.386 148.294 160.849 148.504 160.448 148.924C160.056 149.344 159.86 149.955 159.86 150.758V155H158.586V144.64H159.86V148.42C160.112 148.028 160.457 147.725 160.896 147.51C161.344 147.295 161.843 147.188 162.394 147.188ZM168.199 146.082C167.956 146.082 167.751 145.998 167.583 145.83C167.415 145.662 167.331 145.457 167.331 145.214C167.331 144.971 167.415 144.766 167.583 144.598C167.751 144.43 167.956 144.346 168.199 144.346C168.432 144.346 168.628 144.43 168.787 144.598C168.955 144.766 169.039 144.971 169.039 145.214C169.039 145.457 168.955 145.662 168.787 145.83C168.628 145.998 168.432 146.082 168.199 146.082ZM168.815 147.328V155H167.541V147.328H168.815ZM174.724 147.188C175.658 147.188 176.414 147.473 176.992 148.042C177.571 148.602 177.86 149.414 177.86 150.478V155H176.6V150.66C176.6 149.895 176.409 149.311 176.026 148.91C175.644 148.499 175.121 148.294 174.458 148.294C173.786 148.294 173.25 148.504 172.848 148.924C172.456 149.344 172.26 149.955 172.26 150.758V155H170.986V147.328H172.26V148.42C172.512 148.028 172.853 147.725 173.282 147.51C173.721 147.295 174.202 147.188 174.724 147.188ZM183.436 147.426C183.501 146.567 183.832 145.895 184.43 145.41C185.027 144.925 185.802 144.682 186.754 144.682C187.388 144.682 187.934 144.799 188.392 145.032C188.858 145.256 189.208 145.564 189.442 145.956C189.684 146.348 189.806 146.791 189.806 147.286C189.806 147.865 189.638 148.364 189.302 148.784C188.975 149.204 188.546 149.475 188.014 149.596V149.666C188.62 149.815 189.101 150.109 189.456 150.548C189.81 150.987 189.988 151.561 189.988 152.27C189.988 152.802 189.866 153.283 189.624 153.712C189.381 154.132 189.017 154.463 188.532 154.706C188.046 154.949 187.463 155.07 186.782 155.07C185.792 155.07 184.98 154.813 184.346 154.3C183.711 153.777 183.356 153.04 183.282 152.088H184.514C184.579 152.648 184.808 153.105 185.2 153.46C185.592 153.815 186.114 153.992 186.768 153.992C187.421 153.992 187.916 153.824 188.252 153.488C188.597 153.143 188.77 152.699 188.77 152.158C188.77 151.458 188.536 150.954 188.07 150.646C187.603 150.338 186.898 150.184 185.956 150.184H185.634V149.12H185.97C186.828 149.111 187.477 148.971 187.916 148.7C188.354 148.42 188.574 147.991 188.574 147.412C188.574 146.917 188.41 146.521 188.084 146.222C187.766 145.923 187.309 145.774 186.712 145.774C186.133 145.774 185.666 145.923 185.312 146.222C184.957 146.521 184.747 146.922 184.682 147.426H183.436ZM191.708 149.834C191.708 148.229 191.969 146.978 192.492 146.082C193.015 145.177 193.929 144.724 195.236 144.724C196.533 144.724 197.443 145.177 197.966 146.082C198.489 146.978 198.75 148.229 198.75 149.834C198.75 151.467 198.489 152.737 197.966 153.642C197.443 154.547 196.533 155 195.236 155C193.929 155 193.015 154.547 192.492 153.642C191.969 152.737 191.708 151.467 191.708 149.834ZM197.49 149.834C197.49 149.022 197.434 148.336 197.322 147.776C197.219 147.207 197 146.749 196.664 146.404C196.337 146.059 195.861 145.886 195.236 145.886C194.601 145.886 194.116 146.059 193.78 146.404C193.453 146.749 193.234 147.207 193.122 147.776C193.019 148.336 192.968 149.022 192.968 149.834C192.968 150.674 193.019 151.379 193.122 151.948C193.234 152.517 193.453 152.975 193.78 153.32C194.116 153.665 194.601 153.838 195.236 153.838C195.861 153.838 196.337 153.665 196.664 153.32C197 152.975 197.219 152.517 197.322 151.948C197.434 151.379 197.49 150.674 197.49 149.834ZM203.965 151.136C203.965 150.352 204.124 149.666 204.441 149.078C204.759 148.481 205.193 148.019 205.743 147.692C206.303 147.365 206.929 147.202 207.619 147.202C208.217 147.202 208.772 147.342 209.285 147.622C209.799 147.893 210.191 148.252 210.461 148.7V144.64H211.749V155H210.461V153.558C210.209 154.015 209.836 154.393 209.341 154.692C208.847 154.981 208.268 155.126 207.605 155.126C206.924 155.126 206.303 154.958 205.743 154.622C205.193 154.286 204.759 153.815 204.441 153.208C204.124 152.601 203.965 151.911 203.965 151.136ZM210.461 151.15C210.461 150.571 210.345 150.067 210.111 149.638C209.878 149.209 209.561 148.882 209.159 148.658C208.767 148.425 208.333 148.308 207.857 148.308C207.381 148.308 206.947 148.42 206.555 148.644C206.163 148.868 205.851 149.195 205.617 149.624C205.384 150.053 205.267 150.557 205.267 151.136C205.267 151.724 205.384 152.237 205.617 152.676C205.851 153.105 206.163 153.437 206.555 153.67C206.947 153.894 207.381 154.006 207.857 154.006C208.333 154.006 208.767 153.894 209.159 153.67C209.561 153.437 209.878 153.105 210.111 152.676C210.345 152.237 210.461 151.729 210.461 151.15ZM213.426 151.136C213.426 150.352 213.585 149.666 213.902 149.078C214.22 148.481 214.654 148.019 215.204 147.692C215.764 147.365 216.385 147.202 217.066 147.202C217.738 147.202 218.322 147.347 218.816 147.636C219.311 147.925 219.68 148.289 219.922 148.728V147.328H221.21V155H219.922V153.572C219.67 154.02 219.292 154.393 218.788 154.692C218.294 154.981 217.715 155.126 217.052 155.126C216.371 155.126 215.755 154.958 215.204 154.622C214.654 154.286 214.22 153.815 213.902 153.208C213.585 152.601 213.426 151.911 213.426 151.136ZM219.922 151.15C219.922 150.571 219.806 150.067 219.572 149.638C219.339 149.209 219.022 148.882 218.62 148.658C218.228 148.425 217.794 148.308 217.318 148.308C216.842 148.308 216.408 148.42 216.016 148.644C215.624 148.868 215.312 149.195 215.078 149.624C214.845 150.053 214.728 150.557 214.728 151.136C214.728 151.724 214.845 152.237 215.078 152.676C215.312 153.105 215.624 153.437 216.016 153.67C216.408 153.894 216.842 154.006 217.318 154.006C217.794 154.006 218.228 153.894 218.62 153.67C219.022 153.437 219.339 153.105 219.572 152.676C219.806 152.237 219.922 151.729 219.922 151.15ZM229.971 147.328L225.351 158.612H224.035L225.547 154.916L222.453 147.328H223.867L226.275 153.544L228.655 147.328H229.971ZM233.968 155.126C233.38 155.126 232.852 155.028 232.386 154.832C231.919 154.627 231.55 154.347 231.28 153.992C231.009 153.628 230.86 153.213 230.832 152.746H232.148C232.185 153.129 232.362 153.441 232.68 153.684C233.006 153.927 233.431 154.048 233.954 154.048C234.439 154.048 234.822 153.941 235.102 153.726C235.382 153.511 235.522 153.241 235.522 152.914C235.522 152.578 235.372 152.331 235.074 152.172C234.775 152.004 234.313 151.841 233.688 151.682C233.118 151.533 232.652 151.383 232.288 151.234C231.933 151.075 231.625 150.847 231.364 150.548C231.112 150.24 230.986 149.839 230.986 149.344C230.986 148.952 231.102 148.593 231.336 148.266C231.569 147.939 231.9 147.683 232.33 147.496C232.759 147.3 233.249 147.202 233.8 147.202C234.649 147.202 235.335 147.417 235.858 147.846C236.38 148.275 236.66 148.863 236.698 149.61H235.424C235.396 149.209 235.232 148.887 234.934 148.644C234.644 148.401 234.252 148.28 233.758 148.28C233.3 148.28 232.936 148.378 232.666 148.574C232.395 148.77 232.26 149.027 232.26 149.344C232.26 149.596 232.339 149.806 232.498 149.974C232.666 150.133 232.871 150.263 233.114 150.366C233.366 150.459 233.711 150.567 234.15 150.688C234.7 150.837 235.148 150.987 235.494 151.136C235.839 151.276 236.133 151.491 236.376 151.78C236.628 152.069 236.758 152.447 236.768 152.914C236.768 153.334 236.651 153.712 236.418 154.048C236.184 154.384 235.853 154.65 235.424 154.846C235.004 155.033 234.518 155.126 233.968 155.126Z" fill="black"/>
</svg>
