<svg width="249" height="161" viewBox="0 0 249 161" fill="none" xmlns="http://www.w3.org/2000/svg">
<path opacity="0.3" d="M164.5 40C164.5 62.0914 146.591 80 124.5 80C102.409 80 84.5 62.0914 84.5 40C84.5 17.9086 102.409 0 124.5 0C146.591 0 164.5 17.9086 164.5 40ZM95.4071 40C95.4071 56.0675 108.432 69.0929 124.5 69.0929C140.568 69.0929 153.593 56.0675 153.593 40C153.593 23.9325 140.568 10.9071 124.5 10.9071C108.432 10.9071 95.4071 23.9325 95.4071 40Z" fill="#2F2E30"/>
<circle cx="124.5" cy="40" r="29" fill="black"/>
<g clip-path="url(#clip0_810_330)">
<path d="M116.167 51.6667C118.008 51.6667 119.5 50.1743 119.5 48.3333C119.5 46.4924 118.008 45 116.167 45C114.326 45 112.833 46.4924 112.833 48.3333C112.833 50.1743 114.326 51.6667 116.167 51.6667Z" stroke="#FAFAFA" stroke-width="2" stroke-linecap="round" stroke-linejoin="round"/>
<path d="M132.833 51.6667C134.674 51.6667 136.167 50.1743 136.167 48.3333C136.167 46.4924 134.674 45 132.833 45C130.992 45 129.5 46.4924 129.5 48.3333C129.5 50.1743 130.992 51.6667 132.833 51.6667Z" stroke="#FAFAFA" stroke-width="2" stroke-linecap="round" stroke-linejoin="round"/>
<path d="M112.833 48.3335H111.5C110.395 48.3335 109.5 47.4381 109.5 46.3335V41.6668M107.833 28.3335H124.167C125.271 28.3335 126.167 29.2289 126.167 30.3335V48.3335M119.5 48.3335H129.5M136.167 48.3335H137.5C138.605 48.3335 139.5 47.4381 139.5 46.3335V38.3335M139.5 38.3335H126.167M139.5 38.3335L135.083 30.9712C134.721 30.3688 134.07 30.0002 133.368 30.0002H126.167" stroke="#FAFAFA" stroke-width="2" stroke-linecap="round" stroke-linejoin="round"/>
<path d="M112.5 48H111.167C110.062 48 109.167 47.1046 109.167 46V41.3333M107.5 28H123.833C124.938 28 125.833 28.8954 125.833 30V48M119.5 48H129.167M136.5 48H137.167C138.271 48 139.167 47.1046 139.167 46V38M139.167 38H125.833M139.167 38L134.749 30.6377C134.388 30.0353 133.737 29.6667 133.034 29.6667H125.833" stroke="#FAFAFA" stroke-width="2" stroke-linecap="round" stroke-linejoin="round"/>
<path d="M109.5 31.8184H116.167" stroke="#FAFAFA" stroke-width="2" stroke-linecap="round" stroke-linejoin="round"/>
<path d="M106.318 35.4546H112.985" stroke="#FAFAFA" stroke-width="2" stroke-linecap="round" stroke-linejoin="round"/>
<path d="M109.5 39.0908H116.167" stroke="#FAFAFA" stroke-width="2" stroke-linecap="round" stroke-linejoin="round"/>
</g>
<path d="M13.5 111.04V113.3H7.68V116.88H12.14V119.1H7.68V125H4.88V111.04H13.5ZM22.6855 125L19.6055 119.56H18.2855V125H15.4855V111.04H20.7255C21.8055 111.04 22.7255 111.233 23.4855 111.62C24.2455 111.993 24.8121 112.507 25.1855 113.16C25.5721 113.8 25.7655 114.52 25.7655 115.32C25.7655 116.24 25.4988 117.073 24.9655 117.82C24.4321 118.553 23.6388 119.06 22.5855 119.34L25.9255 125H22.6855ZM18.2855 117.46H20.6255C21.3855 117.46 21.9521 117.28 22.3255 116.92C22.6988 116.547 22.8855 116.033 22.8855 115.38C22.8855 114.74 22.6988 114.247 22.3255 113.9C21.9521 113.54 21.3855 113.36 20.6255 113.36H18.2855V117.46ZM31.098 113.3V116.8H35.798V119.02H31.098V122.72H36.398V125H28.298V111.02H36.398V113.3H31.098ZM41.7425 113.3V116.8H46.4425V119.02H41.7425V122.72H47.0425V125H38.9425V111.02H47.0425V113.3H41.7425ZM62.9127 122.34H57.3527L56.4327 125H53.4927L58.5127 111.02H61.7727L66.7927 125H63.8327L62.9127 122.34ZM62.1527 120.1L60.1327 114.26L58.1127 120.1H62.1527ZM80.6091 125H77.8091L71.4691 115.42V125H68.6691V111.02H71.4691L77.8091 120.62V111.02H80.6091V125ZM88.2561 111.04C89.7228 111.04 91.0094 111.327 92.1161 111.9C93.2361 112.473 94.0961 113.293 94.6961 114.36C95.3094 115.413 95.6161 116.64 95.6161 118.04C95.6161 119.44 95.3094 120.667 94.6961 121.72C94.0961 122.76 93.2361 123.567 92.1161 124.14C91.0094 124.713 89.7228 125 88.2561 125H83.3761V111.04H88.2561ZM88.1561 122.62C89.6228 122.62 90.7561 122.22 91.5561 121.42C92.3561 120.62 92.7561 119.493 92.7561 118.04C92.7561 116.587 92.3561 115.453 91.5561 114.64C90.7561 113.813 89.6228 113.4 88.1561 113.4H86.1761V122.62H88.1561ZM111.098 111.04V113.3H105.278V116.88H109.738V119.1H105.278V125H102.478V111.04H111.098ZM121.643 122.34H116.083L115.163 125H112.223L117.243 111.02H120.503L125.523 125H122.563L121.643 122.34ZM120.883 120.1L118.863 114.26L116.843 120.1H120.883ZM132.22 125.14C131.246 125.14 130.366 124.973 129.58 124.64C128.806 124.307 128.193 123.827 127.74 123.2C127.286 122.573 127.053 121.833 127.04 120.98H130.04C130.08 121.553 130.28 122.007 130.64 122.34C131.013 122.673 131.52 122.84 132.16 122.84C132.813 122.84 133.326 122.687 133.7 122.38C134.073 122.06 134.26 121.647 134.26 121.14C134.26 120.727 134.133 120.387 133.88 120.12C133.626 119.853 133.306 119.647 132.92 119.5C132.546 119.34 132.026 119.167 131.36 118.98C130.453 118.713 129.713 118.453 129.14 118.2C128.58 117.933 128.093 117.54 127.68 117.02C127.28 116.487 127.08 115.78 127.08 114.9C127.08 114.073 127.286 113.353 127.7 112.74C128.113 112.127 128.693 111.66 129.44 111.34C130.186 111.007 131.04 110.84 132 110.84C133.44 110.84 134.606 111.193 135.5 111.9C136.406 112.593 136.906 113.567 137 114.82H133.92C133.893 114.34 133.686 113.947 133.3 113.64C132.926 113.32 132.426 113.16 131.8 113.16C131.253 113.16 130.813 113.3 130.48 113.58C130.16 113.86 130 114.267 130 114.8C130 115.173 130.12 115.487 130.36 115.74C130.613 115.98 130.92 116.18 131.28 116.34C131.653 116.487 132.173 116.66 132.84 116.86C133.746 117.127 134.486 117.393 135.06 117.66C135.633 117.927 136.126 118.327 136.54 118.86C136.953 119.393 137.16 120.093 137.16 120.96C137.16 121.707 136.966 122.4 136.58 123.04C136.193 123.68 135.626 124.193 134.88 124.58C134.133 124.953 133.246 125.14 132.22 125.14ZM149.087 111.04V113.3H145.367V125H142.567V113.3H138.847V111.04H149.087ZM160.776 111.04C162.242 111.04 163.529 111.327 164.636 111.9C165.756 112.473 166.616 113.293 167.216 114.36C167.829 115.413 168.136 116.64 168.136 118.04C168.136 119.44 167.829 120.667 167.216 121.72C166.616 122.76 165.756 123.567 164.636 124.14C163.529 124.713 162.242 125 160.776 125H155.896V111.04H160.776ZM160.676 122.62C162.142 122.62 163.276 122.22 164.076 121.42C164.876 120.62 165.276 119.493 165.276 118.04C165.276 116.587 164.876 115.453 164.076 114.64C163.276 113.813 162.142 113.4 160.676 113.4H158.696V122.62H160.676ZM173.032 113.3V116.8H177.732V119.02H173.032V122.72H178.332V125H170.232V111.02H178.332V113.3H173.032ZM183.676 122.78H188.276V125H180.876V111.04H183.676V122.78ZM192.856 111.04V125H190.056V111.04H192.856ZM208.162 111.04L203.042 125H199.642L194.522 111.04H197.522L201.362 122.14L205.182 111.04H208.162ZM212.641 113.3V116.8H217.341V119.02H212.641V122.72H217.941V125H209.841V111.02H217.941V113.3H212.641ZM227.685 125L224.605 119.56H223.285V125H220.485V111.04H225.725C226.805 111.04 227.725 111.233 228.485 111.62C229.245 111.993 229.812 112.507 230.185 113.16C230.572 113.8 230.765 114.52 230.765 115.32C230.765 116.24 230.499 117.073 229.965 117.82C229.432 118.553 228.639 119.06 227.585 119.34L230.925 125H227.685ZM223.285 117.46H225.625C226.385 117.46 226.952 117.28 227.325 116.92C227.699 116.547 227.885 116.033 227.885 115.38C227.885 114.74 227.699 114.247 227.325 113.9C226.952 113.54 226.385 113.36 225.625 113.36H223.285V117.46ZM244.398 111.04L239.678 120.14V125H236.878V120.14L232.138 111.04H235.298L238.298 117.42L241.278 111.04H244.398Z" fill="black"/>
<path d="M6.99439 145.242V146.278H2.75239V149.568H6.19639V150.604H2.75239V155H1.47839V145.242H6.99439ZM9.80708 148.574C10.0311 148.135 10.3484 147.795 10.7591 147.552C11.1791 147.309 11.6877 147.188 12.2851 147.188V148.504H11.9491C10.5211 148.504 9.80708 149.279 9.80708 150.828V155H8.53308V147.328H9.80708V148.574ZM20.7557 150.87C20.7557 151.113 20.7417 151.369 20.7137 151.64H14.5817C14.6284 152.396 14.8851 152.989 15.3517 153.418C15.8277 153.838 16.4017 154.048 17.0737 154.048C17.6244 154.048 18.0817 153.922 18.4457 153.67C18.8191 153.409 19.0804 153.063 19.2297 152.634H20.6017C20.3964 153.371 19.9857 153.973 19.3697 154.44C18.7537 154.897 17.9884 155.126 17.0737 155.126C16.3457 155.126 15.6924 154.963 15.1137 154.636C14.5444 154.309 14.0964 153.847 13.7697 153.25C13.4431 152.643 13.2797 151.943 13.2797 151.15C13.2797 150.357 13.4384 149.661 13.7557 149.064C14.0731 148.467 14.5164 148.009 15.0857 147.692C15.6644 147.365 16.3271 147.202 17.0737 147.202C17.8017 147.202 18.4457 147.361 19.0057 147.678C19.5657 147.995 19.9951 148.434 20.2937 148.994C20.6017 149.545 20.7557 150.17 20.7557 150.87ZM19.4397 150.604C19.4397 150.119 19.3324 149.703 19.1177 149.358C18.9031 149.003 18.6091 148.737 18.2357 148.56C17.8717 148.373 17.4657 148.28 17.0177 148.28C16.3737 148.28 15.8231 148.485 15.3657 148.896C14.9177 149.307 14.6611 149.876 14.5957 150.604H19.4397ZM29.4374 150.87C29.4374 151.113 29.4234 151.369 29.3954 151.64H23.2634C23.31 152.396 23.5667 152.989 24.0334 153.418C24.5094 153.838 25.0834 154.048 25.7554 154.048C26.306 154.048 26.7634 153.922 27.1274 153.67C27.5007 153.409 27.762 153.063 27.9114 152.634H29.2834C29.078 153.371 28.6674 153.973 28.0514 154.44C27.4354 154.897 26.67 155.126 25.7554 155.126C25.0274 155.126 24.374 154.963 23.7954 154.636C23.226 154.309 22.778 153.847 22.4514 153.25C22.1247 152.643 21.9614 151.943 21.9614 151.15C21.9614 150.357 22.12 149.661 22.4374 149.064C22.7547 148.467 23.198 148.009 23.7674 147.692C24.346 147.365 25.0087 147.202 25.7554 147.202C26.4834 147.202 27.1274 147.361 27.6874 147.678C28.2474 147.995 28.6767 148.434 28.9754 148.994C29.2834 149.545 29.4374 150.17 29.4374 150.87ZM28.1214 150.604C28.1214 150.119 28.014 149.703 27.7994 149.358C27.5847 149.003 27.2907 148.737 26.9174 148.56C26.5534 148.373 26.1474 148.28 25.6994 148.28C25.0554 148.28 24.5047 148.485 24.0474 148.896C23.5994 149.307 23.3427 149.876 23.2774 150.604H28.1214ZM34.3754 151.136C34.3754 150.352 34.5341 149.666 34.8514 149.078C35.1688 148.481 35.6028 148.019 36.1534 147.692C36.7134 147.365 37.3388 147.202 38.0294 147.202C38.6268 147.202 39.1821 147.342 39.6954 147.622C40.2088 147.893 40.6008 148.252 40.8714 148.7V144.64H42.1594V155H40.8714V153.558C40.6194 154.015 40.2461 154.393 39.7514 154.692C39.2568 154.981 38.6781 155.126 38.0154 155.126C37.3341 155.126 36.7134 154.958 36.1534 154.622C35.6028 154.286 35.1688 153.815 34.8514 153.208C34.5341 152.601 34.3754 151.911 34.3754 151.136ZM40.8714 151.15C40.8714 150.571 40.7548 150.067 40.5214 149.638C40.2881 149.209 39.9708 148.882 39.5694 148.658C39.1774 148.425 38.7434 148.308 38.2674 148.308C37.7914 148.308 37.3574 148.42 36.9654 148.644C36.5734 148.868 36.2608 149.195 36.0274 149.624C35.7941 150.053 35.6774 150.557 35.6774 151.136C35.6774 151.724 35.7941 152.237 36.0274 152.676C36.2608 153.105 36.5734 153.437 36.9654 153.67C37.3574 153.894 37.7914 154.006 38.2674 154.006C38.7434 154.006 39.1774 153.894 39.5694 153.67C39.9708 153.437 40.2881 153.105 40.5214 152.676C40.7548 152.237 40.8714 151.729 40.8714 151.15ZM51.3124 150.87C51.3124 151.113 51.2984 151.369 51.2704 151.64H45.1384C45.185 152.396 45.4417 152.989 45.9084 153.418C46.3844 153.838 46.9584 154.048 47.6304 154.048C48.181 154.048 48.6384 153.922 49.0024 153.67C49.3757 153.409 49.637 153.063 49.7864 152.634H51.1584C50.953 153.371 50.5424 153.973 49.9264 154.44C49.3104 154.897 48.545 155.126 47.6304 155.126C46.9024 155.126 46.249 154.963 45.6704 154.636C45.101 154.309 44.653 153.847 44.3264 153.25C43.9997 152.643 43.8364 151.943 43.8364 151.15C43.8364 150.357 43.995 149.661 44.3124 149.064C44.6297 148.467 45.073 148.009 45.6424 147.692C46.221 147.365 46.8837 147.202 47.6304 147.202C48.3584 147.202 49.0024 147.361 49.5624 147.678C50.1224 147.995 50.5517 148.434 50.8504 148.994C51.1584 149.545 51.3124 150.17 51.3124 150.87ZM49.9964 150.604C49.9964 150.119 49.889 149.703 49.6744 149.358C49.4597 149.003 49.1657 148.737 48.7924 148.56C48.4284 148.373 48.0224 148.28 47.5744 148.28C46.9304 148.28 46.3797 148.485 45.9224 148.896C45.4744 149.307 45.2177 149.876 45.1524 150.604H49.9964ZM54.268 144.64V155H52.994V144.64H54.268ZM57.0973 146.082C56.8547 146.082 56.6493 145.998 56.4813 145.83C56.3133 145.662 56.2293 145.457 56.2293 145.214C56.2293 144.971 56.3133 144.766 56.4813 144.598C56.6493 144.43 56.8547 144.346 57.0973 144.346C57.3307 144.346 57.5267 144.43 57.6853 144.598C57.8533 144.766 57.9373 144.971 57.9373 145.214C57.9373 145.457 57.8533 145.662 57.6853 145.83C57.5267 145.998 57.3307 146.082 57.0973 146.082ZM57.7133 147.328V155H56.4393V147.328H57.7133ZM62.7406 153.824L65.1206 147.328H66.4786L63.4686 155H61.9846L58.9746 147.328H60.3466L62.7406 153.824ZM74.7323 150.87C74.7323 151.113 74.7183 151.369 74.6903 151.64H68.5583C68.605 152.396 68.8616 152.989 69.3283 153.418C69.8043 153.838 70.3783 154.048 71.0503 154.048C71.601 154.048 72.0583 153.922 72.4223 153.67C72.7956 153.409 73.057 153.063 73.2063 152.634H74.5783C74.373 153.371 73.9623 153.973 73.3463 154.44C72.7303 154.897 71.965 155.126 71.0503 155.126C70.3223 155.126 69.669 154.963 69.0903 154.636C68.521 154.309 68.073 153.847 67.7463 153.25C67.4196 152.643 67.2563 151.943 67.2563 151.15C67.2563 150.357 67.415 149.661 67.7323 149.064C68.0496 148.467 68.493 148.009 69.0623 147.692C69.641 147.365 70.3036 147.202 71.0503 147.202C71.7783 147.202 72.4223 147.361 72.9823 147.678C73.5423 147.995 73.9716 148.434 74.2703 148.994C74.5783 149.545 74.7323 150.17 74.7323 150.87ZM73.4163 150.604C73.4163 150.119 73.309 149.703 73.0943 149.358C72.8796 149.003 72.5856 148.737 72.2123 148.56C71.8483 148.373 71.4423 148.28 70.9943 148.28C70.3503 148.28 69.7996 148.485 69.3423 148.896C68.8943 149.307 68.6376 149.876 68.5723 150.604H73.4163ZM77.6879 148.574C77.9119 148.135 78.2293 147.795 78.6399 147.552C79.0599 147.309 79.5686 147.188 80.1659 147.188V148.504H79.8299C78.4019 148.504 77.6879 149.279 77.6879 150.828V155H76.4139V147.328H77.6879V148.574ZM88.2446 147.328L83.6246 158.612H82.3086L83.8206 154.916L80.7266 147.328H82.1406L84.5486 153.544L86.9286 147.328H88.2446ZM96.3797 148.378H94.7697V155H93.4957V148.378H92.5017V147.328H93.4957V146.782C93.4957 145.923 93.715 145.298 94.1537 144.906C94.6017 144.505 95.3157 144.304 96.2957 144.304V145.368C95.7357 145.368 95.339 145.48 95.1057 145.704C94.8817 145.919 94.7697 146.278 94.7697 146.782V147.328H96.3797V148.378ZM101.211 155.126C100.492 155.126 99.8391 154.963 99.2511 154.636C98.6724 154.309 98.2151 153.847 97.8791 153.25C97.5524 152.643 97.3891 151.943 97.3891 151.15C97.3891 150.366 97.5571 149.675 97.8931 149.078C98.2384 148.471 98.7051 148.009 99.2931 147.692C99.8811 147.365 100.539 147.202 101.267 147.202C101.995 147.202 102.653 147.365 103.241 147.692C103.829 148.009 104.291 148.467 104.627 149.064C104.972 149.661 105.145 150.357 105.145 151.15C105.145 151.943 104.968 152.643 104.613 153.25C104.268 153.847 103.796 154.309 103.199 154.636C102.602 154.963 101.939 155.126 101.211 155.126ZM101.211 154.006C101.668 154.006 102.098 153.899 102.499 153.684C102.9 153.469 103.222 153.147 103.465 152.718C103.717 152.289 103.843 151.766 103.843 151.15C103.843 150.534 103.722 150.011 103.479 149.582C103.236 149.153 102.919 148.835 102.527 148.63C102.135 148.415 101.71 148.308 101.253 148.308C100.786 148.308 100.357 148.415 99.9651 148.63C99.5824 148.835 99.2744 149.153 99.0411 149.582C98.8078 150.011 98.6911 150.534 98.6911 151.15C98.6911 151.775 98.8031 152.303 99.0271 152.732C99.2604 153.161 99.5684 153.483 99.9511 153.698C100.334 153.903 100.754 154.006 101.211 154.006ZM108.094 148.574C108.318 148.135 108.636 147.795 109.046 147.552C109.466 147.309 109.975 147.188 110.572 147.188V148.504H110.236C108.808 148.504 108.094 149.279 108.094 150.828V155H106.82V147.328H108.094V148.574ZM115.299 151.136C115.299 150.352 115.458 149.666 115.775 149.078C116.093 148.481 116.527 148.019 117.077 147.692C117.637 147.365 118.258 147.202 118.939 147.202C119.611 147.202 120.195 147.347 120.689 147.636C121.184 147.925 121.553 148.289 121.795 148.728V147.328H123.083V155H121.795V153.572C121.543 154.02 121.165 154.393 120.661 154.692C120.167 154.981 119.588 155.126 118.925 155.126C118.244 155.126 117.628 154.958 117.077 154.622C116.527 154.286 116.093 153.815 115.775 153.208C115.458 152.601 115.299 151.911 115.299 151.136ZM121.795 151.15C121.795 150.571 121.679 150.067 121.445 149.638C121.212 149.209 120.895 148.882 120.493 148.658C120.101 148.425 119.667 148.308 119.191 148.308C118.715 148.308 118.281 148.42 117.889 148.644C117.497 148.868 117.185 149.195 116.951 149.624C116.718 150.053 116.601 150.557 116.601 151.136C116.601 151.724 116.718 152.237 116.951 152.676C117.185 153.105 117.497 153.437 117.889 153.67C118.281 153.894 118.715 154.006 119.191 154.006C119.667 154.006 120.101 153.894 120.493 153.67C120.895 153.437 121.212 153.105 121.445 152.676C121.679 152.237 121.795 151.729 121.795 151.15ZM126.51 144.64V155H125.236V144.64H126.51ZM129.956 144.64V155H128.682V144.64H129.956ZM139.205 155.126C138.487 155.126 137.833 154.963 137.245 154.636C136.667 154.309 136.209 153.847 135.873 153.25C135.547 152.643 135.383 151.943 135.383 151.15C135.383 150.366 135.551 149.675 135.887 149.078C136.233 148.471 136.699 148.009 137.287 147.692C137.875 147.365 138.533 147.202 139.261 147.202C139.989 147.202 140.647 147.365 141.235 147.692C141.823 148.009 142.285 148.467 142.621 149.064C142.967 149.661 143.139 150.357 143.139 151.15C143.139 151.943 142.962 152.643 142.607 153.25C142.262 153.847 141.791 154.309 141.193 154.636C140.596 154.963 139.933 155.126 139.205 155.126ZM139.205 154.006C139.663 154.006 140.092 153.899 140.493 153.684C140.895 153.469 141.217 153.147 141.459 152.718C141.711 152.289 141.837 151.766 141.837 151.15C141.837 150.534 141.716 150.011 141.473 149.582C141.231 149.153 140.913 148.835 140.521 148.63C140.129 148.415 139.705 148.308 139.247 148.308C138.781 148.308 138.351 148.415 137.959 148.63C137.577 148.835 137.269 149.153 137.035 149.582C136.802 150.011 136.685 150.534 136.685 151.15C136.685 151.775 136.797 152.303 137.021 152.732C137.255 153.161 137.563 153.483 137.945 153.698C138.328 153.903 138.748 154.006 139.205 154.006ZM146.088 148.574C146.312 148.135 146.63 147.795 147.04 147.552C147.46 147.309 147.969 147.188 148.566 147.188V148.504H148.23C146.802 148.504 146.088 149.279 146.088 150.828V155H144.814V147.328H146.088V148.574ZM149.561 151.136C149.561 150.352 149.72 149.666 150.037 149.078C150.354 148.481 150.788 148.019 151.339 147.692C151.899 147.365 152.524 147.202 153.215 147.202C153.812 147.202 154.368 147.342 154.881 147.622C155.394 147.893 155.786 148.252 156.057 148.7V144.64H157.345V155H156.057V153.558C155.805 154.015 155.432 154.393 154.937 154.692C154.442 154.981 153.864 155.126 153.201 155.126C152.52 155.126 151.899 154.958 151.339 154.622C150.788 154.286 150.354 153.815 150.037 153.208C149.72 152.601 149.561 151.911 149.561 151.136ZM156.057 151.15C156.057 150.571 155.94 150.067 155.707 149.638C155.474 149.209 155.156 148.882 154.755 148.658C154.363 148.425 153.929 148.308 153.453 148.308C152.977 148.308 152.543 148.42 152.151 148.644C151.759 148.868 151.446 149.195 151.213 149.624C150.98 150.053 150.863 150.557 150.863 151.136C150.863 151.724 150.98 152.237 151.213 152.676C151.446 153.105 151.759 153.437 152.151 153.67C152.543 153.894 152.977 154.006 153.453 154.006C153.929 154.006 154.363 153.894 154.755 153.67C155.156 153.437 155.474 153.105 155.707 152.676C155.94 152.237 156.057 151.729 156.057 151.15ZM166.498 150.87C166.498 151.113 166.484 151.369 166.456 151.64H160.324C160.371 152.396 160.627 152.989 161.094 153.418C161.57 153.838 162.144 154.048 162.816 154.048C163.367 154.048 163.824 153.922 164.188 153.67C164.561 153.409 164.823 153.063 164.972 152.634H166.344C166.139 153.371 165.728 153.973 165.112 154.44C164.496 154.897 163.731 155.126 162.816 155.126C162.088 155.126 161.435 154.963 160.856 154.636C160.287 154.309 159.839 153.847 159.512 153.25C159.185 152.643 159.022 151.943 159.022 151.15C159.022 150.357 159.181 149.661 159.498 149.064C159.815 148.467 160.259 148.009 160.828 147.692C161.407 147.365 162.069 147.202 162.816 147.202C163.544 147.202 164.188 147.361 164.748 147.678C165.308 147.995 165.737 148.434 166.036 148.994C166.344 149.545 166.498 150.17 166.498 150.87ZM165.182 150.604C165.182 150.119 165.075 149.703 164.86 149.358C164.645 149.003 164.351 148.737 163.978 148.56C163.614 148.373 163.208 148.28 162.76 148.28C162.116 148.28 161.565 148.485 161.108 148.896C160.66 149.307 160.403 149.876 160.338 150.604H165.182ZM169.454 148.574C169.678 148.135 169.995 147.795 170.406 147.552C170.826 147.309 171.334 147.188 171.932 147.188V148.504H171.596C170.168 148.504 169.454 149.279 169.454 150.828V155H168.18V147.328H169.454V148.574ZM176.118 155.126C175.53 155.126 175.003 155.028 174.536 154.832C174.07 154.627 173.701 154.347 173.43 153.992C173.16 153.628 173.01 153.213 172.982 152.746H174.298C174.336 153.129 174.513 153.441 174.83 153.684C175.157 153.927 175.582 154.048 176.104 154.048C176.59 154.048 176.972 153.941 177.252 153.726C177.532 153.511 177.672 153.241 177.672 152.914C177.672 152.578 177.523 152.331 177.224 152.172C176.926 152.004 176.464 151.841 175.838 151.682C175.269 151.533 174.802 151.383 174.438 151.234C174.084 151.075 173.776 150.847 173.514 150.548C173.262 150.24 173.136 149.839 173.136 149.344C173.136 148.952 173.253 148.593 173.486 148.266C173.72 147.939 174.051 147.683 174.48 147.496C174.91 147.3 175.4 147.202 175.95 147.202C176.8 147.202 177.486 147.417 178.008 147.846C178.531 148.275 178.811 148.863 178.848 149.61H177.574C177.546 149.209 177.383 148.887 177.084 148.644C176.795 148.401 176.403 148.28 175.908 148.28C175.451 148.28 175.087 148.378 174.816 148.574C174.546 148.77 174.41 149.027 174.41 149.344C174.41 149.596 174.49 149.806 174.648 149.974C174.816 150.133 175.022 150.263 175.264 150.366C175.516 150.459 175.862 150.567 176.3 150.688C176.851 150.837 177.299 150.987 177.644 151.136C177.99 151.276 178.284 151.491 178.526 151.78C178.778 152.069 178.909 152.447 178.918 152.914C178.918 153.334 178.802 153.712 178.568 154.048C178.335 154.384 178.004 154.65 177.574 154.846C177.154 155.033 176.669 155.126 176.118 155.126ZM187.795 155.126C187.076 155.126 186.423 154.963 185.835 154.636C185.256 154.309 184.799 153.847 184.463 153.25C184.136 152.643 183.973 151.943 183.973 151.15C183.973 150.366 184.141 149.675 184.477 149.078C184.822 148.471 185.289 148.009 185.877 147.692C186.465 147.365 187.123 147.202 187.851 147.202C188.579 147.202 189.237 147.365 189.825 147.692C190.413 148.009 190.875 148.467 191.211 149.064C191.556 149.661 191.729 150.357 191.729 151.15C191.729 151.943 191.552 152.643 191.197 153.25C190.852 153.847 190.38 154.309 189.783 154.636C189.186 154.963 188.523 155.126 187.795 155.126ZM187.795 154.006C188.252 154.006 188.682 153.899 189.083 153.684C189.484 153.469 189.806 153.147 190.049 152.718C190.301 152.289 190.427 151.766 190.427 151.15C190.427 150.534 190.306 150.011 190.063 149.582C189.82 149.153 189.503 148.835 189.111 148.63C188.719 148.415 188.294 148.308 187.837 148.308C187.37 148.308 186.941 148.415 186.549 148.63C186.166 148.835 185.858 149.153 185.625 149.582C185.392 150.011 185.275 150.534 185.275 151.15C185.275 151.775 185.387 152.303 185.611 152.732C185.844 153.161 186.152 153.483 186.535 153.698C186.918 153.903 187.338 154.006 187.795 154.006ZM196.26 153.824L198.64 147.328H199.998L196.988 155H195.504L192.494 147.328H193.866L196.26 153.824ZM208.252 150.87C208.252 151.113 208.238 151.369 208.21 151.64H202.078C202.124 152.396 202.381 152.989 202.848 153.418C203.324 153.838 203.898 154.048 204.57 154.048C205.12 154.048 205.578 153.922 205.942 153.67C206.315 153.409 206.576 153.063 206.726 152.634H208.098C207.892 153.371 207.482 153.973 206.866 154.44C206.25 154.897 205.484 155.126 204.57 155.126C203.842 155.126 203.188 154.963 202.61 154.636C202.04 154.309 201.592 153.847 201.266 153.25C200.939 152.643 200.776 151.943 200.776 151.15C200.776 150.357 200.934 149.661 201.252 149.064C201.569 148.467 202.012 148.009 202.582 147.692C203.16 147.365 203.823 147.202 204.57 147.202C205.298 147.202 205.942 147.361 206.502 147.678C207.062 147.995 207.491 148.434 207.79 148.994C208.098 149.545 208.252 150.17 208.252 150.87ZM206.936 150.604C206.936 150.119 206.828 149.703 206.614 149.358C206.399 149.003 206.105 148.737 205.732 148.56C205.368 148.373 204.962 148.28 204.514 148.28C203.87 148.28 203.319 148.485 202.862 148.896C202.414 149.307 202.157 149.876 202.092 150.604H206.936ZM211.207 148.574C211.431 148.135 211.749 147.795 212.159 147.552C212.579 147.309 213.088 147.188 213.685 147.188V148.504H213.349C211.921 148.504 211.207 149.279 211.207 150.828V155H209.933V147.328H211.207V148.574ZM225.189 152.326C225.189 152.774 225.077 153.203 224.853 153.614C224.629 154.015 224.297 154.351 223.859 154.622C223.429 154.893 222.911 155.047 222.305 155.084V156.218H221.549V155.084C220.699 155.009 220.009 154.739 219.477 154.272C218.945 153.796 218.674 153.194 218.665 152.466H220.023C220.06 152.858 220.205 153.199 220.457 153.488C220.718 153.777 221.082 153.959 221.549 154.034V150.534C220.923 150.375 220.419 150.212 220.037 150.044C219.654 149.876 219.327 149.615 219.057 149.26C218.786 148.905 218.651 148.429 218.651 147.832C218.651 147.076 218.912 146.451 219.435 145.956C219.967 145.461 220.671 145.186 221.549 145.13V143.968H222.305V145.13C223.098 145.195 223.737 145.452 224.223 145.9C224.708 146.339 224.988 146.913 225.063 147.622H223.705C223.658 147.295 223.513 147.001 223.271 146.74C223.028 146.469 222.706 146.292 222.305 146.208V149.624C222.921 149.783 223.42 149.946 223.803 150.114C224.195 150.273 224.521 150.529 224.783 150.884C225.053 151.239 225.189 151.719 225.189 152.326ZM219.953 147.762C219.953 148.219 220.088 148.569 220.359 148.812C220.629 149.055 221.026 149.255 221.549 149.414V146.18C221.063 146.227 220.676 146.385 220.387 146.656C220.097 146.917 219.953 147.286 219.953 147.762ZM222.305 154.048C222.809 153.992 223.201 153.81 223.481 153.502C223.77 153.194 223.915 152.825 223.915 152.396C223.915 151.939 223.775 151.589 223.495 151.346C223.215 151.094 222.818 150.893 222.305 150.744V154.048ZM227.052 146.04V144.878H229.684V155H228.396V146.04H227.052ZM231.564 152.746V151.78L236.478 144.976H238.004V151.64H239.404V152.746H238.004V155H236.744V152.746H231.564ZM236.8 146.306L233.034 151.64H236.8V146.306ZM240.677 149.834C240.677 148.229 240.938 146.978 241.461 146.082C241.983 145.177 242.898 144.724 244.205 144.724C245.502 144.724 246.412 145.177 246.935 146.082C247.457 146.978 247.719 148.229 247.719 149.834C247.719 151.467 247.457 152.737 246.935 153.642C246.412 154.547 245.502 155 244.205 155C242.898 155 241.983 154.547 241.461 153.642C240.938 152.737 240.677 151.467 240.677 149.834ZM246.459 149.834C246.459 149.022 246.403 148.336 246.291 147.776C246.188 147.207 245.969 146.749 245.633 146.404C245.306 146.059 244.83 145.886 244.205 145.886C243.57 145.886 243.085 146.059 242.749 146.404C242.422 146.749 242.203 147.207 242.091 147.776C241.988 148.336 241.937 149.022 241.937 149.834C241.937 150.674 241.988 151.379 242.091 151.948C242.203 152.517 242.422 152.975 242.749 153.32C243.085 153.665 243.57 153.838 244.205 153.838C244.83 153.838 245.306 153.665 245.633 153.32C245.969 152.975 246.188 152.517 246.291 151.948C246.403 151.379 246.459 150.674 246.459 149.834Z" fill="black"/>
<defs>
<clipPath id="clip0_810_330">
<rect width="40" height="40" fill="white" transform="translate(104.5 20)"/>
</clipPath>
</defs>
</svg>
