<svg width="262" height="161" viewBox="0 0 262 161" fill="none" xmlns="http://www.w3.org/2000/svg">
<path opacity="0.3" d="M171 40C171 62.0914 153.091 80 131 80C108.909 80 91 62.0914 91 40C91 17.9086 108.909 0 131 0C153.091 0 171 17.9086 171 40ZM101.907 40C101.907 56.0675 114.932 69.0929 131 69.0929C147.068 69.0929 160.093 56.0675 160.093 40C160.093 23.9325 147.068 10.9071 131 10.9071C114.932 10.9071 101.907 23.9325 101.907 40Z" fill="#2F2E30"/>
<circle cx="131" cy="40" r="29" fill="black"/>
<g clip-path="url(#clip0_810_347)">
<path d="M124.333 44.9998C124.333 43.1589 122.841 41.6665 121 41.6665C119.159 41.6665 117.667 43.1589 117.667 44.9998V48.3332C117.667 50.1741 119.159 51.6665 121 51.6665C122.841 51.6665 124.333 50.1741 124.333 48.3332V44.9998Z" stroke="white" stroke-width="2" stroke-linecap="round" stroke-linejoin="round"/>
<path d="M144.333 44.9998C144.333 43.1589 142.841 41.6665 141 41.6665C139.159 41.6665 137.667 43.1589 137.667 44.9998V48.3332C137.667 50.1741 139.159 51.6665 141 51.6665C142.841 51.6665 144.333 50.1741 144.333 48.3332V44.9998Z" stroke="white" stroke-width="2" stroke-linecap="round" stroke-linejoin="round"/>
<path d="M117.667 44.9998V39.9998C117.667 36.4636 119.071 33.0722 121.572 30.5717C124.072 28.0713 127.464 26.6665 131 26.6665C134.536 26.6665 137.928 28.0713 140.428 30.5717C142.929 33.0722 144.333 36.4636 144.333 39.9998V44.9998" stroke="white" stroke-width="2" stroke-linecap="round" stroke-linejoin="round"/>
<path d="M141 51.6665C141 52.9926 139.946 54.2644 138.071 55.202C136.196 56.1397 133.652 56.6665 131 56.6665" stroke="white" stroke-width="2" stroke-linecap="round" stroke-linejoin="round"/>
</g>
<path d="M9.44 121.84C10.72 120.773 11.74 119.887 12.5 119.18C13.26 118.46 13.8933 117.713 14.4 116.94C14.9067 116.167 15.16 115.407 15.16 114.66C15.16 113.98 15 113.447 14.68 113.06C14.36 112.673 13.8667 112.48 13.2 112.48C12.5333 112.48 12.02 112.707 11.66 113.16C11.3 113.6 11.1133 114.207 11.1 114.98H8.38C8.43333 113.38 8.90667 112.167 9.8 111.34C10.7067 110.513 11.8533 110.1 13.24 110.1C14.76 110.1 15.9267 110.507 16.74 111.32C17.5533 112.12 17.96 113.18 17.96 114.5C17.96 115.54 17.68 116.533 17.12 117.48C16.56 118.427 15.92 119.253 15.2 119.96C14.48 120.653 13.54 121.493 12.38 122.48H18.28V124.8H8.4V122.72L9.44 121.84ZM19.9244 122.16V119.96L26.4644 110.6H29.7244V119.72H31.4844V122.16H29.7244V125H26.9244V122.16H19.9244ZM27.1044 113.6L23.0044 119.72H27.1044V113.6ZM41.087 106.06L35.687 128.62H32.947L38.347 106.06H41.087ZM52.2736 112.54L46.9536 125H44.1136L49.4736 112.86H42.6336V110.46H52.2736V112.54ZM58.3563 118C58.3563 116.627 58.6629 115.4 59.2763 114.32C59.9029 113.227 60.7496 112.38 61.8163 111.78C62.8963 111.167 64.1029 110.86 65.4363 110.86C66.9963 110.86 68.3629 111.26 69.5363 112.06C70.7096 112.86 71.5296 113.967 71.9963 115.38H68.7763C68.4563 114.713 68.0029 114.213 67.4163 113.88C66.8429 113.547 66.1763 113.38 65.4163 113.38C64.6029 113.38 63.8763 113.573 63.2363 113.96C62.6096 114.333 62.1163 114.867 61.7563 115.56C61.4096 116.253 61.2363 117.067 61.2363 118C61.2363 118.92 61.4096 119.733 61.7563 120.44C62.1163 121.133 62.6096 121.673 63.2363 122.06C63.8763 122.433 64.6029 122.62 65.4163 122.62C66.1763 122.62 66.8429 122.453 67.4163 122.12C68.0029 121.773 68.4563 121.267 68.7763 120.6H71.9963C71.5296 122.027 70.7096 123.14 69.5363 123.94C68.3763 124.727 67.0096 125.12 65.4363 125.12C64.1029 125.12 62.8963 124.82 61.8163 124.22C60.7496 123.607 59.9029 122.76 59.2763 121.68C58.6629 120.6 58.3563 119.373 58.3563 118ZM77.1478 111.04V119.68C77.1478 120.627 77.3945 121.353 77.8878 121.86C78.3811 122.353 79.0745 122.6 79.9678 122.6C80.8745 122.6 81.5745 122.353 82.0678 121.86C82.5611 121.353 82.8078 120.627 82.8078 119.68V111.04H85.6278V119.66C85.6278 120.847 85.3678 121.853 84.8478 122.68C84.3411 123.493 83.6545 124.107 82.7878 124.52C81.9345 124.933 80.9811 125.14 79.9278 125.14C78.8878 125.14 77.9411 124.933 77.0878 124.52C76.2478 124.107 75.5811 123.493 75.0878 122.68C74.5945 121.853 74.3478 120.847 74.3478 119.66V111.04H77.1478ZM93.1531 125.14C92.1798 125.14 91.2998 124.973 90.5131 124.64C89.7398 124.307 89.1265 123.827 88.6731 123.2C88.2198 122.573 87.9865 121.833 87.9731 120.98H90.9731C91.0131 121.553 91.2131 122.007 91.5731 122.34C91.9465 122.673 92.4531 122.84 93.0931 122.84C93.7465 122.84 94.2598 122.687 94.6331 122.38C95.0065 122.06 95.1931 121.647 95.1931 121.14C95.1931 120.727 95.0665 120.387 94.8131 120.12C94.5598 119.853 94.2398 119.647 93.8531 119.5C93.4798 119.34 92.9598 119.167 92.2931 118.98C91.3865 118.713 90.6465 118.453 90.0731 118.2C89.5131 117.933 89.0265 117.54 88.6131 117.02C88.2131 116.487 88.0131 115.78 88.0131 114.9C88.0131 114.073 88.2198 113.353 88.6331 112.74C89.0465 112.127 89.6265 111.66 90.3731 111.34C91.1198 111.007 91.9731 110.84 92.9331 110.84C94.3731 110.84 95.5398 111.193 96.4331 111.9C97.3398 112.593 97.8398 113.567 97.9331 114.82H94.8531C94.8265 114.34 94.6198 113.947 94.2331 113.64C93.8598 113.32 93.3598 113.16 92.7331 113.16C92.1865 113.16 91.7465 113.3 91.4131 113.58C91.0931 113.86 90.9331 114.267 90.9331 114.8C90.9331 115.173 91.0531 115.487 91.2931 115.74C91.5465 115.98 91.8531 116.18 92.2131 116.34C92.5865 116.487 93.1065 116.66 93.7731 116.86C94.6798 117.127 95.4198 117.393 95.9931 117.66C96.5665 117.927 97.0598 118.327 97.4731 118.86C97.8865 119.393 98.0931 120.093 98.0931 120.96C98.0931 121.707 97.8998 122.4 97.5131 123.04C97.1265 123.68 96.5598 124.193 95.8131 124.58C95.0665 124.953 94.1798 125.14 93.1531 125.14ZM110.021 111.04V113.3H106.301V125H103.501V113.3H99.7806V111.04H110.021ZM118.544 125.14C117.237 125.14 116.037 124.833 114.944 124.22C113.85 123.607 112.984 122.76 112.344 121.68C111.704 120.587 111.384 119.353 111.384 117.98C111.384 116.62 111.704 115.4 112.344 114.32C112.984 113.227 113.85 112.373 114.944 111.76C116.037 111.147 117.237 110.84 118.544 110.84C119.864 110.84 121.064 111.147 122.144 111.76C123.237 112.373 124.097 113.227 124.724 114.32C125.364 115.4 125.684 116.62 125.684 117.98C125.684 119.353 125.364 120.587 124.724 121.68C124.097 122.76 123.237 123.607 122.144 124.22C121.05 124.833 119.85 125.14 118.544 125.14ZM118.544 122.64C119.384 122.64 120.124 122.453 120.764 122.08C121.404 121.693 121.904 121.147 122.264 120.44C122.624 119.733 122.804 118.913 122.804 117.98C122.804 117.047 122.624 116.233 122.264 115.54C121.904 114.833 121.404 114.293 120.764 113.92C120.124 113.547 119.384 113.36 118.544 113.36C117.704 113.36 116.957 113.547 116.304 113.92C115.664 114.293 115.164 114.833 114.804 115.54C114.444 116.233 114.264 117.047 114.264 117.98C114.264 118.913 114.444 119.733 114.804 120.44C115.164 121.147 115.664 121.693 116.304 122.08C116.957 122.453 117.704 122.64 118.544 122.64ZM142.987 111.04V125H140.187V115.92L136.447 125H134.327L130.567 115.92V125H127.767V111.04H130.947L135.387 121.42L139.827 111.04H142.987ZM148.555 113.3V116.8H153.255V119.02H148.555V122.72H153.855V125H145.755V111.02H153.855V113.3H148.555ZM163.6 125L160.52 119.56H159.2V125H156.4V111.04H161.64C162.72 111.04 163.64 111.233 164.4 111.62C165.16 111.993 165.726 112.507 166.1 113.16C166.486 113.8 166.68 114.52 166.68 115.32C166.68 116.24 166.413 117.073 165.88 117.82C165.346 118.553 164.553 119.06 163.5 119.34L166.84 125H163.6ZM159.2 117.46H161.54C162.3 117.46 162.866 117.28 163.24 116.92C163.613 116.547 163.8 116.033 163.8 115.38C163.8 114.74 163.613 114.247 163.24 113.9C162.866 113.54 162.3 113.36 161.54 113.36H159.2V117.46ZM178.798 125.14C177.824 125.14 176.944 124.973 176.158 124.64C175.384 124.307 174.771 123.827 174.318 123.2C173.864 122.573 173.631 121.833 173.618 120.98H176.618C176.658 121.553 176.858 122.007 177.218 122.34C177.591 122.673 178.098 122.84 178.738 122.84C179.391 122.84 179.904 122.687 180.278 122.38C180.651 122.06 180.838 121.647 180.838 121.14C180.838 120.727 180.711 120.387 180.458 120.12C180.204 119.853 179.884 119.647 179.498 119.5C179.124 119.34 178.604 119.167 177.938 118.98C177.031 118.713 176.291 118.453 175.718 118.2C175.158 117.933 174.671 117.54 174.258 117.02C173.858 116.487 173.658 115.78 173.658 114.9C173.658 114.073 173.864 113.353 174.278 112.74C174.691 112.127 175.271 111.66 176.018 111.34C176.764 111.007 177.618 110.84 178.578 110.84C180.018 110.84 181.184 111.193 182.078 111.9C182.984 112.593 183.484 113.567 183.578 114.82H180.498C180.471 114.34 180.264 113.947 179.878 113.64C179.504 113.32 179.004 113.16 178.378 113.16C177.831 113.16 177.391 113.3 177.058 113.58C176.738 113.86 176.578 114.267 176.578 114.8C176.578 115.173 176.698 115.487 176.938 115.74C177.191 115.98 177.498 116.18 177.858 116.34C178.231 116.487 178.751 116.66 179.418 116.86C180.324 117.127 181.064 117.393 181.638 117.66C182.211 117.927 182.704 118.327 183.118 118.86C183.531 119.393 183.738 120.093 183.738 120.96C183.738 121.707 183.544 122.4 183.158 123.04C182.771 123.68 182.204 124.193 181.458 124.58C180.711 124.953 179.824 125.14 178.798 125.14ZM188.965 113.3V116.8H193.665V119.02H188.965V122.72H194.265V125H186.165V111.02H194.265V113.3H188.965ZM204.01 125L200.93 119.56H199.61V125H196.81V111.04H202.05C203.13 111.04 204.05 111.233 204.81 111.62C205.57 111.993 206.136 112.507 206.51 113.16C206.896 113.8 207.09 114.52 207.09 115.32C207.09 116.24 206.823 117.073 206.29 117.82C205.756 118.553 204.963 119.06 203.91 119.34L207.25 125H204.01ZM199.61 117.46H201.95C202.71 117.46 203.276 117.28 203.65 116.92C204.023 116.547 204.21 116.033 204.21 115.38C204.21 114.74 204.023 114.247 203.65 113.9C203.276 113.54 202.71 113.36 201.95 113.36H199.61V117.46ZM222.162 111.04L217.042 125H213.642L208.522 111.04H211.522L215.362 122.14L219.182 111.04H222.162ZM226.641 111.04V125H223.841V111.04H226.641ZM228.727 118C228.727 116.627 229.034 115.4 229.647 114.32C230.274 113.227 231.121 112.38 232.187 111.78C233.267 111.167 234.474 110.86 235.807 110.86C237.367 110.86 238.734 111.26 239.907 112.06C241.081 112.86 241.901 113.967 242.367 115.38H239.147C238.827 114.713 238.374 114.213 237.787 113.88C237.214 113.547 236.547 113.38 235.787 113.38C234.974 113.38 234.247 113.573 233.607 113.96C232.981 114.333 232.487 114.867 232.127 115.56C231.781 116.253 231.607 117.067 231.607 118C231.607 118.92 231.781 119.733 232.127 120.44C232.487 121.133 232.981 121.673 233.607 122.06C234.247 122.433 234.974 122.62 235.787 122.62C236.547 122.62 237.214 122.453 237.787 122.12C238.374 121.773 238.827 121.267 239.147 120.6H242.367C241.901 122.027 241.081 123.14 239.907 123.94C238.747 124.727 237.381 125.12 235.807 125.12C234.474 125.12 233.267 124.82 232.187 124.22C231.121 123.607 230.274 122.76 229.647 121.68C229.034 120.6 228.727 119.373 228.727 118ZM247.559 113.3V116.8H252.259V119.02H247.559V122.72H252.859V125H244.759V111.02H252.859V113.3H247.559Z" fill="black"/>
<path d="M28.094 145.242V146.278H23.852V149.568H27.296V150.604H23.852V155H22.578V145.242H28.094ZM30.9067 148.574C31.1307 148.135 31.448 147.795 31.8587 147.552C32.2787 147.309 32.7874 147.188 33.3847 147.188V148.504H33.0487C31.6207 148.504 30.9067 149.279 30.9067 150.828V155H29.6327V147.328H30.9067V148.574ZM35.5133 146.082C35.2707 146.082 35.0653 145.998 34.8973 145.83C34.7293 145.662 34.6453 145.457 34.6453 145.214C34.6453 144.971 34.7293 144.766 34.8973 144.598C35.0653 144.43 35.2707 144.346 35.5133 144.346C35.7467 144.346 35.9427 144.43 36.1013 144.598C36.2693 144.766 36.3533 144.971 36.3533 145.214C36.3533 145.457 36.2693 145.662 36.1013 145.83C35.9427 145.998 35.7467 146.082 35.5133 146.082ZM36.1293 147.328V155H34.8553V147.328H36.1293ZM45.3007 150.87C45.3007 151.113 45.2867 151.369 45.2587 151.64H39.1267C39.1733 152.396 39.43 152.989 39.8967 153.418C40.3727 153.838 40.9467 154.048 41.6187 154.048C42.1693 154.048 42.6267 153.922 42.9907 153.67C43.364 153.409 43.6253 153.063 43.7747 152.634H45.1467C44.9413 153.371 44.5307 153.973 43.9147 154.44C43.2987 154.897 42.5333 155.126 41.6187 155.126C40.8907 155.126 40.2373 154.963 39.6587 154.636C39.0893 154.309 38.6413 153.847 38.3147 153.25C37.988 152.643 37.8247 151.943 37.8247 151.15C37.8247 150.357 37.9833 149.661 38.3007 149.064C38.618 148.467 39.0613 148.009 39.6307 147.692C40.2093 147.365 40.872 147.202 41.6187 147.202C42.3467 147.202 42.9907 147.361 43.5507 147.678C44.1107 147.995 44.54 148.434 44.8387 148.994C45.1467 149.545 45.3007 150.17 45.3007 150.87ZM43.9847 150.604C43.9847 150.119 43.8773 149.703 43.6627 149.358C43.448 149.003 43.154 148.737 42.7807 148.56C42.4167 148.373 42.0107 148.28 41.5627 148.28C40.9187 148.28 40.368 148.485 39.9107 148.896C39.4627 149.307 39.206 149.876 39.1407 150.604H43.9847ZM50.7203 147.188C51.6536 147.188 52.4096 147.473 52.9883 148.042C53.567 148.602 53.8563 149.414 53.8563 150.478V155H52.5963V150.66C52.5963 149.895 52.405 149.311 52.0223 148.91C51.6396 148.499 51.117 148.294 50.4543 148.294C49.7823 148.294 49.2456 148.504 48.8443 148.924C48.4523 149.344 48.2563 149.955 48.2563 150.758V155H46.9823V147.328H48.2563V148.42C48.5083 148.028 48.849 147.725 49.2783 147.51C49.717 147.295 50.1976 147.188 50.7203 147.188ZM55.4614 151.136C55.4614 150.352 55.62 149.666 55.9374 149.078C56.2547 148.481 56.6887 148.019 57.2394 147.692C57.7994 147.365 58.4247 147.202 59.1154 147.202C59.7127 147.202 60.268 147.342 60.7814 147.622C61.2947 147.893 61.6867 148.252 61.9574 148.7V144.64H63.2454V155H61.9574V153.558C61.7054 154.015 61.332 154.393 60.8374 154.692C60.3427 154.981 59.764 155.126 59.1014 155.126C58.42 155.126 57.7994 154.958 57.2394 154.622C56.6887 154.286 56.2547 153.815 55.9374 153.208C55.62 152.601 55.4614 151.911 55.4614 151.136ZM61.9574 151.15C61.9574 150.571 61.8407 150.067 61.6074 149.638C61.374 149.209 61.0567 148.882 60.6554 148.658C60.2634 148.425 59.8294 148.308 59.3534 148.308C58.8774 148.308 58.4434 148.42 58.0514 148.644C57.6594 148.868 57.3467 149.195 57.1134 149.624C56.88 150.053 56.7634 150.557 56.7634 151.136C56.7634 151.724 56.88 152.237 57.1134 152.676C57.3467 153.105 57.6594 153.437 58.0514 153.67C58.4434 153.894 58.8774 154.006 59.3534 154.006C59.8294 154.006 60.2634 153.894 60.6554 153.67C61.0567 153.437 61.374 153.105 61.6074 152.676C61.8407 152.237 61.9574 151.729 61.9574 151.15ZM66.6723 144.64V155H65.3983V144.64H66.6723ZM75.4516 147.328L70.8316 158.612H69.5156L71.0276 154.916L67.9336 147.328H69.3476L71.7556 153.544L74.1356 147.328H75.4516ZM80.1007 153.978C81.2861 153.026 82.2147 152.247 82.8867 151.64C83.5587 151.024 84.1234 150.385 84.5807 149.722C85.0474 149.05 85.2807 148.392 85.2807 147.748C85.2807 147.141 85.1314 146.665 84.8327 146.32C84.5434 145.965 84.0721 145.788 83.4187 145.788C82.7841 145.788 82.2894 145.989 81.9347 146.39C81.5894 146.782 81.4027 147.309 81.3747 147.972H80.1427C80.1801 146.927 80.4974 146.119 81.0947 145.55C81.6921 144.981 82.4621 144.696 83.4047 144.696C84.3661 144.696 85.1267 144.962 85.6867 145.494C86.2561 146.026 86.5407 146.759 86.5407 147.692C86.5407 148.467 86.3074 149.223 85.8407 149.96C85.3834 150.688 84.8607 151.332 84.2727 151.892C83.6847 152.443 82.9334 153.087 82.0187 153.824H86.8347V154.888H80.1007V153.978ZM87.9995 152.746V151.78L92.9135 144.976H94.4395V151.64H95.8395V152.746H94.4395V155H93.1795V152.746H87.9995ZM93.2355 146.306L89.4695 151.64H93.2355V146.306ZM102.082 141.812L98.2461 157.38H96.9861L100.808 141.812H102.082ZM110 145.872L106.108 155H104.82L108.768 145.998H103.364V144.906H110V145.872ZM114.879 151.15C114.879 150.357 115.038 149.666 115.355 149.078C115.673 148.481 116.111 148.019 116.671 147.692C117.241 147.365 117.889 147.202 118.617 147.202C119.56 147.202 120.335 147.431 120.941 147.888C121.557 148.345 121.963 148.98 122.159 149.792H120.787C120.657 149.325 120.4 148.957 120.017 148.686C119.644 148.415 119.177 148.28 118.617 148.28C117.889 148.28 117.301 148.532 116.853 149.036C116.405 149.531 116.181 150.235 116.181 151.15C116.181 152.074 116.405 152.788 116.853 153.292C117.301 153.796 117.889 154.048 118.617 154.048C119.177 154.048 119.644 153.917 120.017 153.656C120.391 153.395 120.647 153.021 120.787 152.536H122.159C121.954 153.32 121.543 153.95 120.927 154.426C120.311 154.893 119.541 155.126 118.617 155.126C117.889 155.126 117.241 154.963 116.671 154.636C116.111 154.309 115.673 153.847 115.355 153.25C115.038 152.653 114.879 151.953 114.879 151.15ZM130.663 147.328V155H129.389V153.866C129.147 154.258 128.806 154.566 128.367 154.79C127.938 155.005 127.462 155.112 126.939 155.112C126.342 155.112 125.805 154.991 125.329 154.748C124.853 154.496 124.475 154.123 124.195 153.628C123.925 153.133 123.789 152.531 123.789 151.822V147.328H125.049V151.654C125.049 152.41 125.241 152.993 125.623 153.404C126.006 153.805 126.529 154.006 127.191 154.006C127.873 154.006 128.409 153.796 128.801 153.376C129.193 152.956 129.389 152.345 129.389 151.542V147.328H130.663ZM135.53 155.126C134.942 155.126 134.415 155.028 133.948 154.832C133.482 154.627 133.113 154.347 132.842 153.992C132.572 153.628 132.422 153.213 132.394 152.746H133.71C133.748 153.129 133.925 153.441 134.242 153.684C134.569 153.927 134.994 154.048 135.516 154.048C136.002 154.048 136.384 153.941 136.664 153.726C136.944 153.511 137.084 153.241 137.084 152.914C137.084 152.578 136.935 152.331 136.636 152.172C136.338 152.004 135.876 151.841 135.25 151.682C134.681 151.533 134.214 151.383 133.85 151.234C133.496 151.075 133.188 150.847 132.926 150.548C132.674 150.24 132.548 149.839 132.548 149.344C132.548 148.952 132.665 148.593 132.898 148.266C133.132 147.939 133.463 147.683 133.892 147.496C134.322 147.3 134.812 147.202 135.362 147.202C136.212 147.202 136.898 147.417 137.42 147.846C137.943 148.275 138.223 148.863 138.26 149.61H136.986C136.958 149.209 136.795 148.887 136.496 148.644C136.207 148.401 135.815 148.28 135.32 148.28C134.863 148.28 134.499 148.378 134.228 148.574C133.958 148.77 133.822 149.027 133.822 149.344C133.822 149.596 133.902 149.806 134.06 149.974C134.228 150.133 134.434 150.263 134.676 150.366C134.928 150.459 135.274 150.567 135.712 150.688C136.263 150.837 136.711 150.987 137.056 151.136C137.402 151.276 137.696 151.491 137.938 151.78C138.19 152.069 138.321 152.447 138.33 152.914C138.33 153.334 138.214 153.712 137.98 154.048C137.747 154.384 137.416 154.65 136.986 154.846C136.566 155.033 136.081 155.126 135.53 155.126ZM141.683 148.378V152.9C141.683 153.273 141.762 153.539 141.921 153.698C142.079 153.847 142.355 153.922 142.747 153.922H143.685V155H142.537C141.827 155 141.295 154.837 140.941 154.51C140.586 154.183 140.409 153.647 140.409 152.9V148.378H139.415V147.328H140.409V145.396H141.683V147.328H143.685V148.378H141.683ZM148.574 155.126C147.856 155.126 147.202 154.963 146.614 154.636C146.036 154.309 145.578 153.847 145.242 153.25C144.916 152.643 144.752 151.943 144.752 151.15C144.752 150.366 144.92 149.675 145.256 149.078C145.602 148.471 146.068 148.009 146.656 147.692C147.244 147.365 147.902 147.202 148.63 147.202C149.358 147.202 150.016 147.365 150.604 147.692C151.192 148.009 151.654 148.467 151.99 149.064C152.336 149.661 152.508 150.357 152.508 151.15C152.508 151.943 152.331 152.643 151.976 153.25C151.631 153.847 151.16 154.309 150.562 154.636C149.965 154.963 149.302 155.126 148.574 155.126ZM148.574 154.006C149.032 154.006 149.461 153.899 149.862 153.684C150.264 153.469 150.586 153.147 150.828 152.718C151.08 152.289 151.206 151.766 151.206 151.15C151.206 150.534 151.085 150.011 150.842 149.582C150.6 149.153 150.282 148.835 149.89 148.63C149.498 148.415 149.074 148.308 148.616 148.308C148.15 148.308 147.72 148.415 147.328 148.63C146.946 148.835 146.638 149.153 146.404 149.582C146.171 150.011 146.054 150.534 146.054 151.15C146.054 151.775 146.166 152.303 146.39 152.732C146.624 153.161 146.932 153.483 147.314 153.698C147.697 153.903 148.117 154.006 148.574 154.006ZM163.409 147.188C164.007 147.188 164.539 147.314 165.005 147.566C165.472 147.809 165.841 148.177 166.111 148.672C166.382 149.167 166.517 149.769 166.517 150.478V155H165.257V150.66C165.257 149.895 165.066 149.311 164.683 148.91C164.31 148.499 163.801 148.294 163.157 148.294C162.495 148.294 161.967 148.509 161.575 148.938C161.183 149.358 160.987 149.969 160.987 150.772V155H159.727V150.66C159.727 149.895 159.536 149.311 159.153 148.91C158.78 148.499 158.271 148.294 157.627 148.294C156.965 148.294 156.437 148.509 156.045 148.938C155.653 149.358 155.457 149.969 155.457 150.772V155H154.183V147.328H155.457V148.434C155.709 148.033 156.045 147.725 156.465 147.51C156.895 147.295 157.366 147.188 157.879 147.188C158.523 147.188 159.093 147.333 159.587 147.622C160.082 147.911 160.451 148.336 160.693 148.896C160.908 148.355 161.263 147.935 161.757 147.636C162.252 147.337 162.803 147.188 163.409 147.188ZM175.607 150.87C175.607 151.113 175.593 151.369 175.565 151.64H169.433C169.48 152.396 169.737 152.989 170.203 153.418C170.679 153.838 171.253 154.048 171.925 154.048C172.476 154.048 172.933 153.922 173.297 153.67C173.671 153.409 173.932 153.063 174.081 152.634H175.453C175.248 153.371 174.837 153.973 174.221 154.44C173.605 154.897 172.84 155.126 171.925 155.126C171.197 155.126 170.544 154.963 169.965 154.636C169.396 154.309 168.948 153.847 168.621 153.25C168.295 152.643 168.131 151.943 168.131 151.15C168.131 150.357 168.29 149.661 168.607 149.064C168.925 148.467 169.368 148.009 169.937 147.692C170.516 147.365 171.179 147.202 171.925 147.202C172.653 147.202 173.297 147.361 173.857 147.678C174.417 147.995 174.847 148.434 175.145 148.994C175.453 149.545 175.607 150.17 175.607 150.87ZM174.291 150.604C174.291 150.119 174.184 149.703 173.969 149.358C173.755 149.003 173.461 148.737 173.087 148.56C172.723 148.373 172.317 148.28 171.869 148.28C171.225 148.28 170.675 148.485 170.217 148.896C169.769 149.307 169.513 149.876 169.447 150.604H174.291ZM178.563 148.574C178.787 148.135 179.104 147.795 179.515 147.552C179.935 147.309 180.444 147.188 181.041 147.188V148.504H180.705C179.277 148.504 178.563 149.279 178.563 150.828V155H177.289V147.328H178.563V148.574ZM188.96 155.126C188.372 155.126 187.845 155.028 187.378 154.832C186.911 154.627 186.543 154.347 186.272 153.992C186.001 153.628 185.852 153.213 185.824 152.746H187.14C187.177 153.129 187.355 153.441 187.672 153.684C187.999 153.927 188.423 154.048 188.946 154.048C189.431 154.048 189.814 153.941 190.094 153.726C190.374 153.511 190.514 153.241 190.514 152.914C190.514 152.578 190.365 152.331 190.066 152.172C189.767 152.004 189.305 151.841 188.68 151.682C188.111 151.533 187.644 151.383 187.28 151.234C186.925 151.075 186.617 150.847 186.356 150.548C186.104 150.24 185.978 149.839 185.978 149.344C185.978 148.952 186.095 148.593 186.328 148.266C186.561 147.939 186.893 147.683 187.322 147.496C187.751 147.3 188.241 147.202 188.792 147.202C189.641 147.202 190.327 147.417 190.85 147.846C191.373 148.275 191.653 148.863 191.69 149.61H190.416C190.388 149.209 190.225 148.887 189.926 148.644C189.637 148.401 189.245 148.28 188.75 148.28C188.293 148.28 187.929 148.378 187.658 148.574C187.387 148.77 187.252 149.027 187.252 149.344C187.252 149.596 187.331 149.806 187.49 149.974C187.658 150.133 187.863 150.263 188.106 150.366C188.358 150.459 188.703 150.567 189.142 150.688C189.693 150.837 190.141 150.987 190.486 151.136C190.831 151.276 191.125 151.491 191.368 151.78C191.62 152.069 191.751 152.447 191.76 152.914C191.76 153.334 191.643 153.712 191.41 154.048C191.177 154.384 190.845 154.65 190.416 154.846C189.996 155.033 189.511 155.126 188.96 155.126ZM200.362 147.328V155H199.088V153.866C198.846 154.258 198.505 154.566 198.066 154.79C197.637 155.005 197.161 155.112 196.638 155.112C196.041 155.112 195.504 154.991 195.028 154.748C194.552 154.496 194.174 154.123 193.894 153.628C193.624 153.133 193.488 152.531 193.488 151.822V147.328H194.748V151.654C194.748 152.41 194.94 152.993 195.322 153.404C195.705 153.805 196.228 154.006 196.89 154.006C197.572 154.006 198.108 153.796 198.5 153.376C198.892 152.956 199.088 152.345 199.088 151.542V147.328H200.362ZM203.788 148.742C204.04 148.303 204.413 147.939 204.908 147.65C205.412 147.351 205.995 147.202 206.658 147.202C207.339 147.202 207.955 147.365 208.506 147.692C209.066 148.019 209.504 148.481 209.822 149.078C210.139 149.666 210.298 150.352 210.298 151.136C210.298 151.911 210.139 152.601 209.822 153.208C209.504 153.815 209.066 154.286 208.506 154.622C207.955 154.958 207.339 155.126 206.658 155.126C206.004 155.126 205.426 154.981 204.922 154.692C204.427 154.393 204.049 154.025 203.788 153.586V158.64H202.514V147.328H203.788V148.742ZM208.996 151.136C208.996 150.557 208.879 150.053 208.646 149.624C208.412 149.195 208.095 148.868 207.694 148.644C207.302 148.42 206.868 148.308 206.392 148.308C205.925 148.308 205.491 148.425 205.09 148.658C204.698 148.882 204.38 149.213 204.138 149.652C203.904 150.081 203.788 150.581 203.788 151.15C203.788 151.729 203.904 152.237 204.138 152.676C204.38 153.105 204.698 153.437 205.09 153.67C205.491 153.894 205.925 154.006 206.392 154.006C206.868 154.006 207.302 153.894 207.694 153.67C208.095 153.437 208.412 153.105 208.646 152.676C208.879 152.237 208.996 151.724 208.996 151.136ZM213.248 148.742C213.5 148.303 213.874 147.939 214.368 147.65C214.872 147.351 215.456 147.202 216.118 147.202C216.8 147.202 217.416 147.365 217.966 147.692C218.526 148.019 218.965 148.481 219.282 149.078C219.6 149.666 219.758 150.352 219.758 151.136C219.758 151.911 219.6 152.601 219.282 153.208C218.965 153.815 218.526 154.286 217.966 154.622C217.416 154.958 216.8 155.126 216.118 155.126C215.465 155.126 214.886 154.981 214.382 154.692C213.888 154.393 213.51 154.025 213.248 153.586V158.64H211.974V147.328H213.248V148.742ZM218.456 151.136C218.456 150.557 218.34 150.053 218.106 149.624C217.873 149.195 217.556 148.868 217.154 148.644C216.762 148.42 216.328 148.308 215.852 148.308C215.386 148.308 214.952 148.425 214.55 148.658C214.158 148.882 213.841 149.213 213.598 149.652C213.365 150.081 213.248 150.581 213.248 151.15C213.248 151.729 213.365 152.237 213.598 152.676C213.841 153.105 214.158 153.437 214.55 153.67C214.952 153.894 215.386 154.006 215.852 154.006C216.328 154.006 216.762 153.894 217.154 153.67C217.556 153.437 217.873 153.105 218.106 152.676C218.34 152.237 218.456 151.724 218.456 151.136ZM224.781 155.126C224.063 155.126 223.409 154.963 222.821 154.636C222.243 154.309 221.785 153.847 221.449 153.25C221.123 152.643 220.959 151.943 220.959 151.15C220.959 150.366 221.127 149.675 221.463 149.078C221.809 148.471 222.275 148.009 222.863 147.692C223.451 147.365 224.109 147.202 224.837 147.202C225.565 147.202 226.223 147.365 226.811 147.692C227.399 148.009 227.861 148.467 228.197 149.064C228.543 149.661 228.715 150.357 228.715 151.15C228.715 151.943 228.538 152.643 228.183 153.25C227.838 153.847 227.367 154.309 226.769 154.636C226.172 154.963 225.509 155.126 224.781 155.126ZM224.781 154.006C225.239 154.006 225.668 153.899 226.069 153.684C226.471 153.469 226.793 153.147 227.035 152.718C227.287 152.289 227.413 151.766 227.413 151.15C227.413 150.534 227.292 150.011 227.049 149.582C226.807 149.153 226.489 148.835 226.097 148.63C225.705 148.415 225.281 148.308 224.823 148.308C224.357 148.308 223.927 148.415 223.535 148.63C223.153 148.835 222.845 149.153 222.611 149.582C222.378 150.011 222.261 150.534 222.261 151.15C222.261 151.775 222.373 152.303 222.597 152.732C222.831 153.161 223.139 153.483 223.521 153.698C223.904 153.903 224.324 154.006 224.781 154.006ZM231.665 148.574C231.889 148.135 232.206 147.795 232.617 147.552C233.037 147.309 233.545 147.188 234.143 147.188V148.504H233.807C232.379 148.504 231.665 149.279 231.665 150.828V155H230.391V147.328H231.665V148.574ZM237.167 148.378V152.9C237.167 153.273 237.246 153.539 237.405 153.698C237.564 153.847 237.839 153.922 238.231 153.922H239.169V155H238.021C237.312 155 236.78 154.837 236.425 154.51C236.07 154.183 235.893 153.647 235.893 152.9V148.378H234.899V147.328H235.893V145.396H237.167V147.328H239.169V148.378H237.167Z" fill="black"/>
<defs>
<clipPath id="clip0_810_347">
<rect width="40" height="40" fill="white" transform="translate(111 20)"/>
</clipPath>
</defs>
</svg>
